<?xml version="1.0" encoding="UTF-8" standalone="no"?>
<!DOCTYPE svg  PUBLIC '-//W3C//DTD SVG 1.1//EN'  'http://www.w3.org/Graphics/SVG/1.1/DTD/svg11.dtd'>
<svg stroke-linejoin="round" xmlns="http://www.w3.org/2000/svg" clip-rule="evenodd" fill-rule="evenodd" xml:space="preserve" height="100%" width="100%" version="1.1" xmlns:serif="http://www.serif.com/" stroke-miterlimit="2" xmlns:xlink="http://www.w3.org/1999/xlink" viewBox="0 0 490 379">
    <g transform="translate(-176.36 -149.54)">
            <g transform="translate(-312.3 168.68)">
                <rect height="2.315" width="453.79" y="353.64" x="524" fill="#3f3d56"/>
                <g transform="matrix(-1 7.6571e-16 -7.6571e-16 -1 1671.9 427.02)">
                    <rect height="295.85" width="348.28" y="88.093" x="717.38" fill="#6c63ff"/>
                </g>
                <g transform="translate(-111.11 -45.009)">
                    <path fill="#3f3d56" d="m1011.4 344.64h-352.08v-299.63l352.08-0.001v299.63zm-348.3-3.78h344.5v-292.07l-344.5-0.001v292.07z" fill-rule="nonzero"/>
                </g>
                <g transform="translate(-13.947 -89.661)" fill-rule="nonzero">
                    <g transform="translate(86.426 .87560)">
                        <path fill="#3f3d56" d="m620.23 429h-63.44v-30.45h2.53v27.91h58.37v-27.91h2.54v30.45z"/>
                        <path fill="#cfcce0" d="m575.86 394.4l12.65 21.92 12.65-21.92h-25.3z"/>
                    </g>
                    <g transform="translate(12)">
                        <path fill="#3f3d56" d="m782.64 430.1h-63.44v-30.45h2.54v27.91h58.36v-27.91h2.54v30.45z"/>
                        <path fill="#cfcce0" d="m762.34 403.45h-10.15v-10.15h-2.54v10.15h-10.15v2.54h10.15v10.15h2.54v-10.15h10.15v-2.54z"/>
                    </g>
                    <g transform="translate(-50.167 2.5024)">
                        <path fill="#3f3d56" d="m943.79 428.65h-63.45v-30.46h2.54v27.92h58.37v-27.92h2.54v30.46z"/>
                        <path fill="#cfcce0" d="m923.11 396.55l-1.79-1.79-9.25 9.25-9.26-9.25-1.79 1.79 9.25 9.26-9.25 9.25 1.79 1.79 9.26-9.25 9.25 9.25 1.79-1.79-9.25-9.25 9.25-9.26z"/>
                    </g>
                </g>
            </g>
            <g transform="matrix(.48923 0 0 .48923 289 158.28)">
                <g transform="translate(-884.92 -25.839)">
                    <g transform="translate(-40.41 -54.835)">
                        <path fill="#ffb8b8" d="m722.77 398.63s-43.22 33.95-21.61 41.67 35.5-27.78 35.5-27.78l-13.89-13.89z" fill-rule="nonzero"/>
                    </g>
                    <g transform="translate(-40.41 -54.835)">
                        <path fill="#cfcce0" d="m724.31 386.28l-9.26 15.44s15.44 0 18.52 23.15l12.35-15.44-21.61-23.15z" fill-rule="nonzero"/>
                    </g>
                    <g transform="translate(77.836 7.9831)">
                        <path fill="#ffb8b8" d="m811.35 675.38l1.54 46.3-18.52 10.8-7.71-4.63 1.54-52.47h23.15z" fill-rule="nonzero"/>
                    </g>
                    <g transform="translate(-40.41 -54.835)">
                        <path fill="#ffb8b8" d="m820.01 725.84l3.09 49.4-43.22 18.52 3.08-26.24s12.35-20.07 9.27-41.68h27.78z" fill-rule="nonzero"/>
                    </g>
                    <g transform="translate(-40.41 -54.835)">
                        <path fill="#2f2e41" d="m886.38 353.87s24.69 64.82 29.32 104.95c4.64 40.13 12.35 146.63 12.35 146.63l15.44 137.37-43.22 6.18-18.52-138.92-41.68-137.36-9.26 137.36-7.71 125.03-40.14 1.54-3.08-129.65-16.98-165.15 9.26-78.72 114.22-9.26z" fill-rule="nonzero"/>
                    </g>
                    <g transform="translate(-40.41 -54.835)">
                        <path fill="#2f2e41" d="m909.53 787.58s2.53-25.92 21.33-11.41l3.37-2.48 15.43 33.96s18.52 26.24-13.89 29.33c-32.41 3.08-29.33-29.33-29.33-29.33l-3.08-13.89 1.54-9.1 4.63 2.92z" fill-rule="nonzero"/>
                    </g>
                    <g transform="translate(-40.41 -54.835)">
                        <path fill="#2f2e41" d="m820.01 756.71c7.73 4.42 12.46 12.71 12.35 21.61 0 15.44-1.55 16.98-1.55 16.98l-23.15 6.18s-15.43-1.55-24.7 7.71c-9.26 9.26-55.56 15.44-55.56 3.09s38.59-32.41 38.59-32.41 11.46-19.36 19.62-17.4 11.25 5.05 11.25 6.59c0 1.55-4.63 12.35-4.63 12.35s26.23-6.17 27.78-24.7z" fill-rule="nonzero"/>
                    </g>
                    <g transform="translate(77.836 7.9831)">
                        <circle cy="62.616" cx="698.68" r="38.587" fill="#ffb8b8"/>
                    </g>
                    <g transform="translate(-40.41 -54.835)">
                        <path fill="#ffb8b8" d="m845.48 135.47l16.97 38.58-46.3 66.37s-3.09-72.54-12.35-84.89 41.68-20.06 41.68-20.06z" fill-rule="nonzero"/>
                    </g>
                    <g transform="translate(77.836 7.9831)">
                        <path fill="#cfcce0" d="m705.62 152.91l7.72-20.07 6.17 1.55 7.72-6.18 10.81-33.953 15.43 10.803 20.07 202.2-125.03 3.08 16.98-140.45 15.44-40.13 11.14-14.73 7.38 22.44 6.17 15.44z" fill-rule="nonzero"/>
                    </g>
                    <g transform="translate(-40.41 -54.835)">
                        <path fill="#575a89" d="m859.37 302.16l4.72-139.62s9.17 0.71 12.26 5.34c3.08 4.63 54.02 13.89 54.02 13.89l-9.26 143.54s38.58 114.22 24.69 120.39c-13.89 6.18-38.58 4.64-38.58 4.64l-47.85-148.18z" fill-rule="nonzero"/>
                    </g>
                    <g transform="translate(-40.41 -54.835)">
                        <path fill="#575a89" d="m784.51 284.41l16.37-94.1-36.44 24.65 9.26 67.91-7.71 46.3s-29.33 128.11-20.07 132.74 20.07 0 20.07 0l18.52-129.65v-47.85z" fill-rule="nonzero"/>
                    </g>
                    <g transform="translate(-40.41 -54.835)">
                        <path fill="#575a89" d="m775.25 211.87l-10.81 3.09-4.63 61.73-7.71 54.03-37.05 66.36s18.52-12.34 26.24 23.16l40.8-71.03-6.84-137.34z" fill-rule="nonzero"/>
                    </g>
                    <g transform="translate(-40.41 -54.835)">
                        <path fill="#ffb8b8" d="m895.64 386.28s-43.22 33.96-21.61 41.67c21.61 7.72 35.5-27.78 35.5-27.78l-13.89-13.89z" fill-rule="nonzero"/>
                    </g>
                    <g transform="translate(77.836 7.9831)">
                        <path fill="#cfcce0" d="m803.63 340.44l-13.89 16.98-18.52-32.41 7.72-13.89 24.69 29.32z" fill-rule="nonzero"/>
                    </g>
                    <g transform="translate(-40.41 -54.835)">
                        <path fill="#575a89" d="m918.79 187.17l12.35-6.17s9.26 12.35 10.8 23.15c1.55 10.81 9.26 24.7 9.26 32.41 0 7.72 21.61 80.26 21.61 80.26l-49.39 100.33s-10.8-37.04-33.96-40.13l38.59-54.02-21.61-38.59 12.35-97.24z" fill-rule="nonzero"/>
                    </g>
                    <g transform="translate(-40.41 -54.835)">
                        <path fill="#2f2e41" d="m849.22 88.668l7.28-2.913s-15.21-16.75-36.38-15.293l5.95-6.555s-14.55-5.826-27.78 9.468c-6.95 8.039-15 17.489-20.02 28.135h-7.79l3.25 7.16-11.38 7.16 11.68-1.28c-0.69 3.92-0.8 7.92-0.31 11.87 0.5 3.96 2.52 7.56 5.62 10.06 3.11 2.49 9.03-18.68 9.03-21.59v7.28s7.27-6.56 7.27-10.93l3.97 5.1 1.99-8.01 24.47 8.01-3.97-6.55 15.22 2.18-5.96-8.01s17.2 9.47 17.86 17.48c0.67 8.01 5.7 15.6 5.7 15.6s13.49-37.448-5.7-48.372z" fill-rule="nonzero"/>
                    </g>
                    <g transform="translate(77.836 7.9831)">
                        <ellipse rx="4.322" ry="5.402" cy="56.442" cx="730.32" fill="#ffb8b8"/>
                    </g>
                </g>
                <path fill="#6c63ff" d="m178.6 318.12h-133.24l0.001-37.34h69.549l63.69 37.34z" fill-rule="nonzero"/>
                <g transform="translate(-118.24 -62.818)">
                    <path fill="#3f3d56" d="m163.24 375.81v109.08h432.66v-109.08h-432.66zm168.75 90.78h-140.56v-15.37h140.56v15.37zm235.73-28.55h-376.29v-15.38h376.29v15.38zm0-28.55h-376.29v-15.38h376.29v15.38z" fill-rule="nonzero"/>
                </g>
                <path fill="#6c63ff" d="m178.6 141.68h-133.24l0.001-37.33h69.549l63.69 37.33z" fill-rule="nonzero"/>
                <g transform="translate(-118.24 -62.818)">
                    <path fill="#3f3d56" d="m163.24 201.57v109.09h432.66v-109.09h-432.66zm168.75 90.78h-140.56v-15.37h140.56v15.37zm81.26-28.55h-221.82v-15.37h221.82v15.37zm154.47-28.55h-376.29v-15.37h376.29v15.37z" fill-rule="nonzero"/>
                </g>
                <path fill="#6c63ff" d="m178.6 490.89h-133.24l0.001-37.33h69.549l63.69 37.33z" fill-rule="nonzero"/>
                <g transform="translate(-118.24 -62.818)">
                    <path fill="#3f3d56" d="m163.24 546.39v109.08h432.66v-109.08h-432.66zm250.01 90.78h-221.82v-15.38h221.82v15.38zm0-28.55h-221.82v-15.38h221.82v15.38zm154.47-28.56h-376.29v-15.37h376.29v15.37z" fill-rule="nonzero"/>
                </g>
                <g transform="translate(-38.789)">
                    <path fill="#3f3d56" d="m600.28 223.68h-61.49v-61.5h41.73v1.47h-40.27v58.57h58.57v-29.29h1.46v30.75z" fill-rule="nonzero"/>
                    <g transform="translate(-118.24 -62.818)">
                        <path fill="#cfcce0" d="m687.47 270.46c-1.43-4.2-19.25-18.46-8.33-20.86l8.96 11.94 41.17-41.17 4.14 4.14-45.94 45.95z" fill-rule="nonzero"/>
                    </g>
                    <path fill="#3f3d56" d="m600.28 397.92h-61.49v-61.5h41.73v1.46h-40.27v58.57h58.57v-29.28h1.46v30.75z" fill-rule="nonzero"/>
                    <g transform="translate(-118.24 -62.818)">
                        <path fill="#cfcce0" d="m687.47 444.69c-1.43-4.19-19.25-18.46-8.33-20.85l8.96 11.94 41.17-41.17 4.14 4.14-45.94 45.94z" fill-rule="nonzero"/>
                    </g>
                    <path fill="#3f3d56" d="m600.28 571.42h-61.49v-61.49h41.73v1.46h-40.27v58.57h58.57v-29.29h1.46v30.75z" fill-rule="nonzero"/>
                    <g transform="translate(-118.24 -62.818)">
                        <path fill="#cfcce0" d="m687.47 618.2c-1.43-4.2-19.25-18.46-8.33-20.86l8.96 11.94 41.17-41.17 4.14 4.14-45.94 45.95z" fill-rule="nonzero"/>
                    </g>
                </g>
            </g>
    </g>
</svg>
