<?xml version="1.0" encoding="UTF-8" standalone="no"?>
<!DOCTYPE svg PUBLIC "-//W3C//DTD SVG 1.1//EN" "http://www.w3.org/Graphics/SVG/1.1/DTD/svg11.dtd">
<svg width="100%" height="100%" viewBox="0 0 1088 827" version="1.1" xmlns="http://www.w3.org/2000/svg" xmlns:xlink="http://www.w3.org/1999/xlink" xml:space="preserve" xmlns:serif="http://www.serif.com/" style="fill-rule:evenodd;clip-rule:evenodd;stroke-linejoin:round;stroke-miterlimit:2;">
    <g transform="matrix(1,0,0,1,-56,-36.8532)">
        <path d="M990.987,366.241C943.167,178.201 777.934,42.463 583.985,37.019C481.451,34.141 373.556,68.147 295,187.147C154.573,399.872 303.63,546.872 407.548,616.723C457.752,650.538 502.99,691.198 541.95,737.523C612.143,820.819 747.179,924.325 908,762.147C1024.56,644.6 1022.84,491.494 990.987,366.241Z" style="fill:rgb(242,242,242);fill-rule:nonzero;"/>
    </g>
    <g id="code">
        <path d="M719.6,507.394L818,409.294L719.6,311.194L749.6,281.294L878,409.294L749.6,537.294L719.6,507.394Z" style="fill-opacity:0.1;fill-rule:nonzero;"/>
        <g transform="matrix(1,0,0,1,-56,-36.8532)">
            <path d="M494.6,453.147L534.6,453.147L534.6,413.147L494.6,413.147L494.6,453.147ZM695.4,413.147L655.4,413.147L655.4,453.147L695.4,453.147L695.4,413.147ZM575,453.147L615,453.147L615,413.147L575,413.147L575,453.147Z" style="fill-opacity:0.1;fill-rule:nonzero;"/>
        </g>
        <path d="M384.4,506.394L285.9,408.294L384.3,310.194L354.3,280.294L226,408.294L354.4,536.294L384.4,506.394Z" style="fill-opacity:0.1;fill-rule:nonzero;"/>
        <path d="M719.6,488.394L818,390.294L719.6,292.194L749.6,262.294L878,390.294L749.6,518.294L719.6,488.394Z" style="fill:rgb(108,99,255);fill-rule:nonzero;"/>
        <g transform="matrix(1,0,0,1,-56,-36.8532)">
            <path d="M494.6,434.147L534.6,434.147L534.6,394.147L494.6,394.147L494.6,434.147ZM695.4,394.147L655.4,394.147L655.4,434.147L695.4,434.147L695.4,394.147ZM575,434.147L615,434.147L615,394.147L575,394.147L575,434.147Z" style="fill:rgb(108,99,255);fill-rule:nonzero;"/>
        </g>
        <path d="M384.4,487.394L285.9,389.294L384.3,291.194L354.3,261.294L226,389.294L354.4,517.294L384.4,487.394Z" style="fill:rgb(108,99,255);fill-rule:nonzero;"/>
    </g>
    <g transform="matrix(1,0,0,1,-56,-36.8532)">
        <path d="M1144,789.147C1144,805.715 900.443,863.147 600,863.147C299.557,863.147 56,805.715 56,789.147C56,772.578 299.557,803.147 600,803.147C900.443,803.147 1144,772.578 1144,789.147Z" style="fill:rgb(63,61,86);fill-rule:nonzero;"/>
    </g>
    <g transform="matrix(1,0,0,1,-56,-36.8532)">
        <path d="M1144,789.147C1144,805.715 900.443,863.147 600,863.147C299.557,863.147 56,805.715 56,789.147C56,772.578 299.557,803.147 600,803.147C900.443,803.147 1144,772.578 1144,789.147Z" style="fill-opacity:0.1;fill-rule:nonzero;"/>
    </g>
    <ellipse cx="544" cy="752.294" rx="544" ry="30" style="fill:rgb(63,61,86);"/>
    <g transform="matrix(1,0,0,1,-347.554,-17.037)">
        <g>
            <g transform="matrix(1,0,0,1,-56,-36.8532)">
                <path d="M688.696,644.806C688.696,708.822 728.856,760.623 778.487,760.623" style="fill:rgb(63,61,86);fill-rule:nonzero;"/>
            </g>
            <g transform="matrix(1,0,0,1,-56,-36.8532)">
                <path d="M778.487,760.623C778.487,695.888 823.303,643.505 878.688,643.505" style="fill:rgb(108,99,255);fill-rule:nonzero;"/>
            </g>
            <g transform="matrix(1,0,0,1,-56,-36.8532)">
                <path d="M721.229,650.609C721.229,711.418 746.838,760.623 778.487,760.623" style="fill:rgb(108,99,255);fill-rule:nonzero;"/>
            </g>
            <g transform="matrix(1,0,0,1,-56,-36.8532)">
                <path d="M778.487,760.623C778.487,677.906 830.288,610.972 894.304,610.972" style="fill:rgb(63,61,86);fill-rule:nonzero;"/>
            </g>
            <g transform="matrix(1,0,0,1,-56,-36.8532)">
                <path d="M801.725,777.09C787.349,777.206 768.321,774.851 764.491,772.517C761.574,770.741 760.411,764.365 760.022,761.423C759.753,761.435 759.597,761.44 759.597,761.44C759.597,761.44 760.404,771.71 764.234,774.043C768.064,776.376 787.092,778.732 801.469,778.616C805.619,778.582 807.052,777.106 806.973,774.919C806.397,776.24 804.814,777.065 801.725,777.09Z" style="fill-opacity:0.2;fill-rule:nonzero;"/>
            </g>
        </g>
        <g transform="matrix(1,0,0,1,-56,-36.8532)">
            <path d="M759.597,761.44C759.597,761.44 772.331,761.048 776.169,758.315C780.006,755.582 795.756,752.319 796.708,756.702C797.661,761.085 815.845,778.5 801.469,778.616C787.092,778.732 768.064,776.376 764.234,774.043C760.404,771.71 759.597,761.44 759.597,761.44Z" style="fill:rgb(168,168,168);fill-rule:nonzero;"/>
        </g>
    </g>
</svg>
