<?xml version="1.0" encoding="UTF-8" standalone="no"?>
<!DOCTYPE svg PUBLIC "-//W3C//DTD SVG 1.1//EN" "http://www.w3.org/Graphics/SVG/1.1/DTD/svg11.dtd">
<svg width="100%" height="100%" viewBox="0 0 537 827" version="1.1" xmlns="http://www.w3.org/2000/svg" xmlns:xlink="http://www.w3.org/1999/xlink" xml:space="preserve" xmlns:serif="http://www.serif.com/" style="fill-rule:evenodd;clip-rule:evenodd;stroke-linejoin:round;stroke-miterlimit:2;">
    <g transform="matrix(1,0,0,1,-5.80748,0.0923592)">
        <g transform="matrix(0.57022,0,0,1.73723,27.9117,402.47)">
            <g transform="matrix(-9.02665e-16,-1.11475,-3.40469,3.28583e-16,1210.95,268.117)">
                <g id="tools">
                    <g transform="matrix(-5.08206,-7.4355e-18,-9.99704e-19,1.01367,4130.12,-161.582)">
                        <path d="M724.568,251.058L805.642,251.058L805.642,249.025L724.456,249.025L724.568,251.058Z" style="fill:rgb(218,216,218);"/>
                    </g>
                    <g transform="matrix(-1.01648e-15,-3.17226,-1.01621,2.61981e-16,290.33,2647.58)">
                        <path d="M724.568,251.058L805.642,251.058L805.642,249.025L724.456,249.025L724.568,251.058Z" style="fill:rgb(218,216,218);"/>
                    </g>
                    <g transform="matrix(1,0,0,1,-19.327,260.032)">
                        <circle cx="57.629" cy="90.56" r="16.465" style="fill:rgb(108,99,255);"/>
                    </g>
                </g>
            </g>
        </g>
    </g>
</svg>
