<?xml version="1.0" encoding="UTF-8" standalone="no"?>
<!DOCTYPE svg PUBLIC "-//W3C//DTD SVG 1.1//EN" "http://www.w3.org/Graphics/SVG/1.1/DTD/svg11.dtd">
<svg width="100%" height="100%" viewBox="0 0 1354 228" version="1.1" xmlns="http://www.w3.org/2000/svg" xmlns:xlink="http://www.w3.org/1999/xlink" xml:space="preserve" xmlns:serif="http://www.serif.com/" style="fill-rule:evenodd;clip-rule:evenodd;stroke-linejoin:round;stroke-miterlimit:2;">
    <g id="Artboard2" transform="matrix(1.215,0,0,0.615917,24.3184,15.4538)">
        <rect x="-20.015" y="-25.091" width="1114.23" height="370.128" style="fill:none;"/>
        <clipPath id="_clip1">
            <rect x="-20.015" y="-25.091" width="1114.23" height="370.128"/>
        </clipPath>
        <g clip-path="url(#_clip1)">
            <g id="Artboard1" transform="matrix(0.897961,0,0,0.983886,391.475,56.0162)">
                <rect x="-219.431" y="-83.912" width="1001.11" height="522.152" style="fill:none;"/>
                <g transform="matrix(-1.77501,0,0,3.20371,799.15,-314.142)">
                    <g>
                        <g>
                            <g>
                                <g transform="matrix(-1.00502,0,0,1.01367,850.875,-161.582)">
                                    <g transform="matrix(2.4609,0,0,1,-1176.96,0)">
                                        <path d="M724.568,251.058L805.642,251.058L805.642,249.025L724.456,249.025L724.568,251.058Z" style="fill:rgb(218,216,218);"/>
                                    </g>
                                    <g transform="matrix(1.44428,-1.15668,0.636327,0.777146,-716.425,987.602)">
                                        <path d="M724.568,251.058L805.642,251.058L805.642,249.025L724.456,249.025L724.568,251.058Z" style="fill:rgb(218,216,218);"/>
                                    </g>
                                    <g transform="matrix(4.27236,0,0,1,-2952.15,93.5839)">
                                        <path d="M724.568,251.058L805.642,251.058L805.642,249.025L724.456,249.025L724.568,251.058Z" style="fill:rgb(218,216,218);"/>
                                    </g>
                                </g>
                            </g>
                            <g transform="matrix(1,0,0,1,-32.0831,1.15965)">
                                <circle cx="57.629" cy="90.56" r="16.465" style="fill:rgb(108,99,255);"/>
                            </g>
                        </g>
                    </g>
                </g>
            </g>
        </g>
    </g>
</svg>
