<svg xmlns="http://www.w3.org/2000/svg" viewBox="0 0 525.33 401.78"><defs><style>.cls-1{fill:none;}.cls-2{fill:#f4f4f4;}.cls-3{fill:#7c7675;}.cls-4{fill:#d73327;}.cls-5{fill:#7ec244;}.cls-6{fill:#b87d2e;}.cls-7{fill:#f3dd15;}.cls-8{fill:#769ad0;}.cls-9{fill:#fff;}.cls-10{fill:#83c345;}.cls-11{fill:#8ac649;}.cls-12{fill:#bd822f;}.cls-13{font-size:35px;fill:#ef4136;font-family:MyESFSlapstickComicShaded, "(MyE)SF Slapstick Comic Shaded";}</style></defs><g id="Layer_2" data-name="Layer 2"><g id="Layer_1-2" data-name="Layer 1"><rect class="cls-1" width="525.33" height="401.78"/><path class="cls-2" d="M494.16,34.32H30.91v227c3.07,2.41,6.71,1.59,10.13,1.59q226.56.06,453.12,0Z"/><path class="cls-3" d="M277.81,339.11c-7.84-24-15.69-48-23.61-72.22h-1.07c-7.9,24.2-15.75,48.22-23.59,72.22Z"/><path class="cls-4" d="M494.16,266.49v-5.11h-459c-1.33,0-2.66,0-4,.06v5c1.83,0,3.66.05,5.49.05H253.26l-.13.39h1.07l-.12-.39H494.16Z"/><path class="cls-5" d="M446.76,116.27c18.18-.55,34.19,16.47,34.27,34.15.09,19.62-17,35-34.48,35.06-17.83,0-34.44-15.34-34.78-34.28C411.45,133,427.8,115.45,446.76,116.27Z"/><path class="cls-6" d="M169,151.07c.41,16.51-14.36,30.82-31.32,30.45-14.75-.32-30.27-13.23-29.87-31.48.33-14.58,12.95-30.28,31.4-29.91C156,120.47,169.6,135.49,169,151.07Z"/><path class="cls-7" d="M192,227.32c0-6.5,0-13,0-19.49,0-3,.4-3.43,3.45-3.44q20-.06,40,0c3,0,3.43.41,3.44,3.45q.06,20,0,40c0,3-.4,3.44-3.45,3.45q-20,0-40,0c-3,0-3.42-.41-3.44-3.45C191.93,241,192,234.14,192,227.32Z"/><path class="cls-8" d="M369.52,207.24c2.46,3.48,3.9,7.27,5.71,10.85q6.81,13.38,13.54,26.78a12.13,12.13,0,0,1,1.08,2.68c.18.79.08,1.69-1.11,1.74h-1c-12.16,0-24.31,0-36.47,0-2.61,0-3-.57-1.85-2.9q9.45-19.06,19-38.08C368.56,208,368.89,207.84,369.52,207.24Z"/><path class="cls-9" d="M446.59,142.31c4.86,0,6.8,3.32,4.34,7.51-.43.74-1,1.13-.17,2a8,8,0,0,1,1.33,2c1.79,3.44.78,7.06-2.75,8.17-2.41.76-5.19,1.13-7.46-1-2.48-2.38-2.92-5.68-.61-8.31,1.2-1.36,1-2,.11-3.49A4.64,4.64,0,0,1,446.59,142.31Z"/><path class="cls-9" d="M132.91,153.16c-.12-2.82.2-5.45,2.21-7.78s4.57-2.19,7.2-1.91c.2,0,.42.45.51.72a.82.82,0,0,1-.7,1.07,17,17,0,0,1-2.48.07c-2,0-3,1.4-3.67,2.87-.35.74-.54,2.06,1.07,2.12.5,0,1,0,1.49,0,4.31.18,5.91,2,5.41,6.21-.37,3.13-2.34,5.26-6.61,4.8-1.83-.2-4.17-2.67-4.41-4.69A30.87,30.87,0,0,1,132.91,153.16Z"/><path class="cls-9" d="M211.07,224.83A2,2,0,0,1,213,222.4c1.25-.19,2.64-.51,3.86.32a4.57,4.57,0,0,1,1.12,5.57,4.22,4.22,0,0,1-2,2.05,6.24,6.24,0,0,0-3.2,3.34c1.9,1.26,4.23,0,6.43,1.18-2.43.83-4.56.43-6.64.45a1.54,1.54,0,0,1-1.3-2.63c1.37-1.66,3-3.09,4.49-4.66.66-.69,1.33-1.3.81-2.56-1-2.35-1.63-2.64-4-1.29C212.12,224.43,211.89,225.34,211.07,224.83Z"/><path class="cls-9" d="M369.82,237.8v-9.43c-.69.4-1.1.79-1.54.83a1.47,1.47,0,0,1-1.22-.51.87.87,0,0,1,.43-1.23c1-.33,2.09-.54,3.18-.81v11.53Z"/><path class="cls-10" d="M446.57,152.33a4,4,0,0,1,3.36,4.07c-.06,1.92-1.9,3.93-3.59,3.91-2.09,0-3.71-2.36-3.46-5A3.62,3.62,0,0,1,446.57,152.33Z"/><path class="cls-11" d="M446.62,144.33a2.71,2.71,0,0,1,2.39,3.1,2.76,2.76,0,0,1-2.65,2.88c-1.28-.05-3.44-2.1-3.32-3.14S445.41,144.21,446.62,144.33Z"/><path class="cls-12" d="M138.25,159.31c-1.44-.1-3.19-2.19-3.24-3.87,0-1.2,2-3.09,3.36-3.12a4.16,4.16,0,0,1,3.52,3.56C141.85,157.45,139.76,159.42,138.25,159.31Z"/><text class="cls-13" transform="translate(138.36 75.73)">Teeter-Totter</text></g></g></svg>