<?xml version="1.0" encoding="UTF-8" standalone="no"?>
<!DOCTYPE svg PUBLIC "-//W3C//DTD SVG 1.1//EN" "http://www.w3.org/Graphics/SVG/1.1/DTD/svg11.dtd">
<svg width="100%" height="100%" viewBox="0 0 381 332" version="1.1" xmlns="http://www.w3.org/2000/svg" xmlns:xlink="http://www.w3.org/1999/xlink" xml:space="preserve" xmlns:serif="http://www.serif.com/" style="fill-rule:evenodd;clip-rule:evenodd;stroke-linejoin:round;stroke-miterlimit:2;">
    <g id="Artboard1" transform="matrix(0.981584,0,0,0.986615,6.79326,-26.0231)">
        <rect x="-6.921" y="26.376" width="387.857" height="336.428" style="fill:none;"/>
        <clipPath id="_clip1">
            <rect x="-6.921" y="26.376" width="387.857" height="336.428"/>
        </clipPath>
        <g clip-path="url(#_clip1)">
            <g transform="matrix(1.01876,0,0,1.01357,-4.1555,-2.40583)">
                <path d="M364.359,355.37L14.032,355.37C8.515,355.37 4.037,350.891 4.037,345.375L4.037,43.203C4.037,37.686 8.515,33.208 14.032,33.208L364.359,33.208C369.88,33.208 374.355,37.686 374.355,43.203L374.355,345.375C374.355,350.895 369.88,355.37 364.359,355.37Z" style="fill:rgb(248,82,82);fill-rule:nonzero;"/>
            </g>
            <g transform="matrix(1.01876,0,0,1.01357,-4.1555,-2.40583)">
                <path d="M374.355,85.952L374.355,345.375C374.355,350.895 369.88,355.37 364.359,355.37L14.032,355.37C8.515,355.37 4.037,350.895 4.037,345.375L4.037,43.203C4.037,37.686 8.515,33.208 14.032,33.208L101.415,33.208L139.662,80.736C142.317,84.035 146.322,85.952 150.555,85.952L374.355,85.952Z" style="fill:rgb(216,214,215);fill-rule:nonzero;"/>
            </g>
            <g transform="matrix(1.01876,0,0,1.01357,-4.1555,-2.40583)">
                <path d="M374.355,85.952L374.355,345.375C374.355,350.895 369.88,355.37 364.359,355.37L34.366,355.37C30.227,355.37 26.87,352.016 26.87,347.873L26.87,40.704C26.87,36.566 30.227,33.208 34.366,33.208L101.415,33.208L139.662,80.736C142.317,84.035 146.322,85.952 150.555,85.952L374.355,85.952Z" style="fill:white;fill-rule:nonzero;"/>
            </g>
            <g transform="matrix(1.01876,0,0,1.01357,-4.1555,-2.40583)">
                <path d="M247.729,258.554C243.177,253.631 243.478,245.951 248.401,241.402L287.46,205.284L248.401,169.169C243.478,164.62 243.177,156.94 247.729,152.017C252.278,147.097 259.958,146.793 264.881,151.345L313.58,196.37C318.773,201.168 318.78,209.391 313.58,214.197L264.881,259.222C259.962,263.77 252.282,263.477 247.729,258.554Z" style="fill:rgb(64,196,223);fill-rule:nonzero;"/>
            </g>
            <g transform="matrix(1.01876,0,0,1.01357,-4.1555,-2.40583)">
                <path d="M113.51,259.226L64.812,214.197C59.619,209.403 59.611,201.18 64.812,196.374L113.51,151.349C118.434,146.797 126.114,147.097 130.662,152.021C135.215,156.94 134.914,164.62 129.991,169.172L90.932,205.287L129.991,241.402C134.914,245.951 135.215,253.635 130.662,258.554C126.11,263.481 118.43,263.77 113.51,259.226Z" style="fill:rgb(64,196,223);fill-rule:nonzero;"/>
            </g>
            <g transform="matrix(1.01876,0,0,1.01357,-4.1555,-2.40583)">
                <path d="M157.13,260.823C151.324,257.473 149.337,250.051 152.686,244.245L204.68,154.188C208.034,148.386 215.452,146.395 221.262,149.744C227.068,153.098 229.055,160.52 225.705,166.322L173.711,256.379C170.361,262.185 162.939,264.176 157.13,260.823Z" style="fill:rgb(64,196,223);fill-rule:nonzero;"/>
            </g>
            <g transform="matrix(1.01876,0,0,1.01357,-4.1555,-2.40583)">
                <path d="M315.45,60.062C315.45,65.774 310.823,70.401 305.111,70.401C299.403,70.401 294.773,65.774 294.773,60.062C294.773,54.354 299.403,49.723 305.111,49.723C310.823,49.723 315.45,54.354 315.45,60.062Z" style="fill:white;fill-rule:nonzero;"/>
            </g>
            <g transform="matrix(1.01876,0,0,1.01357,-4.1555,-2.40583)">
                <path d="M353.295,60.062C353.295,65.774 348.664,70.401 342.956,70.401C337.244,70.401 332.617,65.774 332.617,60.062C332.617,54.354 337.244,49.723 342.956,49.723C348.664,49.723 353.295,54.354 353.295,60.062Z" style="fill:white;fill-rule:nonzero;"/>
            </g>
            <g transform="matrix(1.01876,0,0,1.01357,-4.1555,-2.40583)">
                <path d="M378.313,239.595L378.313,43.223C378.313,35.508 372.035,29.23 364.32,29.23L13.993,29.23C6.278,29.23 0,35.508 0,43.223L0,345.394C0,353.113 6.278,359.387 13.993,359.387L268.903,359.387C268.936,360.185 375.833,359.154 375.833,359.154C375.833,359.154 378.401,239.591 378.313,239.595ZM364.32,37.226C367.627,37.226 370.317,39.92 370.317,43.223L370.317,81.965L150.527,81.965C147.478,81.965 144.636,80.607 142.727,78.241L109.719,37.226L364.32,37.226ZM268.864,351.391L13.993,351.391C10.686,351.391 7.996,348.701 7.996,345.394L7.996,43.223C7.996,39.92 10.686,37.226 13.993,37.226L99.455,37.226L136.499,83.254C139.935,87.517 145.046,89.961 150.527,89.961L370.321,89.961L370.321,240.282C370.183,240.298 368.643,351.93 368.643,351.93C368.643,351.93 268.905,349.853 268.864,351.391Z" style="fill:rgb(73,19,82);fill-rule:nonzero;"/>
                <path d="M89.343,61.803C89.343,59.594 87.554,57.805 85.345,57.805L33.558,57.805C31.352,57.805 29.56,59.594 29.56,61.803C29.56,64.009 31.352,65.801 33.558,65.801L85.345,65.801C87.554,65.801 89.343,64.009 89.343,61.803Z" style="fill:rgb(73,19,82);fill-rule:nonzero;"/>
                <path d="M305.111,74.399C313.018,74.399 319.448,67.968 319.448,60.062C319.448,52.156 313.018,45.725 305.111,45.725C297.205,45.725 290.771,52.156 290.771,60.062C290.771,67.968 297.205,74.399 305.111,74.399ZM305.111,53.722C308.61,53.722 311.452,56.568 311.452,60.062C311.452,63.56 308.61,66.403 305.111,66.403C301.613,66.403 298.767,63.56 298.767,60.062C298.767,56.568 301.613,53.722 305.111,53.722Z" style="fill:rgb(73,19,82);fill-rule:nonzero;"/>
                <path d="M342.956,74.399C350.862,74.399 357.293,67.968 357.293,60.062C357.293,52.156 350.862,45.725 342.956,45.725C335.05,45.725 328.619,52.156 328.619,60.062C328.619,67.968 335.05,74.399 342.956,74.399ZM342.956,53.722C346.454,53.722 349.297,56.568 349.297,60.062C349.297,63.56 346.454,66.403 342.956,66.403C339.458,66.403 336.615,63.56 336.615,60.062C336.615,56.568 339.458,53.722 342.956,53.722Z" style="fill:rgb(73,19,82);fill-rule:nonzero;"/>
                <path d="M316.254,193.457L267.552,148.433C264.385,145.504 260.255,143.978 255.968,144.153C247.058,144.505 240.124,151.997 240.475,160.907C240.643,165.217 242.478,169.2 245.645,172.124L281.529,205.303C243.275,240.676 240.823,240.871 240.475,249.699C239.913,264.126 257.092,271.848 267.552,262.181L316.25,217.157C323.153,210.777 323.153,199.837 316.254,193.457ZM310.827,211.281L262.125,256.309C258.829,259.351 253.691,259.175 250.623,255.86C247.569,252.561 247.768,247.415 251.075,244.358L290.134,208.243C290.954,207.486 291.419,206.42 291.419,205.307C291.419,204.194 290.958,203.128 290.134,202.371L251.075,166.256C243.173,158.951 254.257,147.027 262.125,154.305L310.827,199.329C314.302,202.539 314.326,208.048 310.827,211.281Z" style="fill:rgb(73,19,82);fill-rule:nonzero;"/>
                <path d="M137.834,160.911C138.397,146.543 121.241,138.742 110.758,148.433L62.055,193.457C55.156,199.837 55.156,210.773 62.055,217.153L110.754,262.177C121.296,271.923 138.389,263.981 137.834,249.699C137.487,240.922 135.246,240.871 96.777,205.303C135.035,169.934 137.487,169.739 137.834,160.911ZM88.175,202.371C86.465,203.948 86.465,206.662 88.175,208.243C130.846,247.696 129.667,245.502 129.846,250.015C130.123,257.219 121.507,261.229 116.185,256.309C63.305,207.419 64.87,210.211 64.87,205.307C64.87,200.403 63.199,203.292 116.185,154.305C121.436,149.444 130.127,153.297 129.846,160.599C129.667,165.124 130.826,162.933 88.175,202.371Z" style="fill:rgb(73,19,82);fill-rule:nonzero;"/>
                <path d="M223.218,146.305C215.515,141.858 205.625,144.513 201.178,152.212L149.184,242.265C144.726,249.992 147.365,259.846 155.088,264.309L155.092,264.309C162.795,268.752 172.684,266.101 177.131,258.402L229.125,168.345C233.572,160.641 230.921,150.752 223.218,146.305ZM222.199,164.351L170.209,254.404C166.582,260.67 157.161,259.409 155.295,252.44C154.065,247.848 151.683,253.931 208.101,156.21C210.346,152.325 215.331,150.986 219.22,153.231C223.109,155.472 224.444,160.462 222.199,164.351Z" style="fill:rgb(73,19,82);fill-rule:nonzero;"/>
            </g>
        </g>
    </g>
</svg>
