<?xml version="1.0" encoding="UTF-8" standalone="no"?>
<!DOCTYPE svg PUBLIC "-//W3C//DTD SVG 1.1//EN" "http://www.w3.org/Graphics/SVG/1.1/DTD/svg11.dtd">
<svg width="100%" height="100%" viewBox="0 0 490 379" version="1.1" xmlns="http://www.w3.org/2000/svg" xmlns:xlink="http://www.w3.org/1999/xlink" xml:space="preserve" xmlns:serif="http://www.serif.com/" style="fill-rule:evenodd;clip-rule:evenodd;stroke-linejoin:round;stroke-miterlimit:2;">
    <g transform="matrix(1,0,0,1,-176.364,-149.539)">
        <g>
            <g transform="matrix(1,0,0,1,-312.302,168.677)">
                <rect x="524" y="353.641" width="453.787" height="2.315" style="fill:rgb(63,61,86);"/>
                <g transform="matrix(-1,7.65714e-16,-7.65714e-16,-1,1671.93,427.023)">
                    <rect x="717.381" y="88.093" width="348.275" height="295.847" style="fill:rgb(108,99,255);"/>
                </g>
                <g transform="matrix(1,0,0,1,-111.106,-45.0091)">
                    <path d="M1011.37,344.636L659.318,344.636L659.318,45.009L1011.37,45.009L1011.37,344.636ZM663.098,340.856L1007.59,340.856L1007.59,48.789L663.098,48.789L663.098,340.856Z" style="fill:rgb(63,61,86);fill-rule:nonzero;"/>
                </g>
                <g transform="matrix(1,0,0,1,-13.9473,-89.6609)">
                    <g transform="matrix(1,0,0,1,86.4256,0.875595)">
                        <path d="M620.23,429.003L556.787,429.003L556.787,398.551L559.325,398.551L559.325,426.465L617.692,426.465L617.692,398.551L620.23,398.551L620.23,429.003Z" style="fill:rgb(63,61,86);fill-rule:nonzero;"/>
                        <path d="M575.855,394.401L588.509,416.315L601.162,394.401L575.855,394.401Z" style="fill:rgb(207,204,224);fill-rule:nonzero;"/>
                    </g>
                    <g transform="matrix(1,0,0,1,12,0)">
                        <path d="M782.643,430.1L719.2,430.1L719.2,399.648L721.738,399.648L721.738,427.563L780.105,427.563L780.105,399.648L782.643,399.648L782.643,430.1Z" style="fill:rgb(63,61,86);fill-rule:nonzero;"/>
                        <path d="M762.341,403.454L752.191,403.454L752.191,393.304L749.653,393.304L749.653,403.454L739.502,403.454L739.502,405.992L749.653,405.992L749.653,416.143L752.191,416.143L752.191,405.992L762.341,405.992L762.341,403.454Z" style="fill:rgb(207,204,224);fill-rule:nonzero;"/>
                    </g>
                    <g transform="matrix(1,0,0,1,-50.1673,2.50238)">
                        <path d="M943.787,428.646L880.345,428.646L880.345,398.193L882.882,398.193L882.882,426.108L941.25,426.108L941.25,398.193L943.787,398.193L943.787,428.646Z" style="fill:rgb(63,61,86);fill-rule:nonzero;"/>
                        <path d="M923.114,396.553L921.32,394.758L912.066,404.012L902.812,394.758L901.018,396.553L910.272,405.806L901.018,415.06L902.812,416.854L912.066,407.601L921.32,416.854L923.114,415.06L913.86,405.806L923.114,396.553Z" style="fill:rgb(207,204,224);fill-rule:nonzero;"/>
                    </g>
                </g>
            </g>
            <g transform="matrix(0.489232,0,0,0.489232,288.996,158.275)">
                <g transform="matrix(1,0,0,1,-884.924,-25.8389)">
                    <g transform="matrix(1,0,0,1,-40.4096,-54.8347)">
                        <path d="M722.77,398.628C722.77,398.628 679.553,432.585 701.161,440.302C722.77,448.019 736.661,412.52 736.661,412.52L722.77,398.628Z" style="fill:rgb(255,184,184);fill-rule:nonzero;"/>
                    </g>
                    <g transform="matrix(1,0,0,1,-40.4096,-54.8347)">
                        <path d="M724.313,386.28L715.053,401.715C715.053,401.715 730.487,401.715 733.574,424.867L745.922,409.433L724.313,386.28Z" style="fill:rgb(207,204,224);fill-rule:nonzero;"/>
                    </g>
                    <g transform="matrix(1,0,0,1,77.8356,7.98314)">
                        <path d="M811.35,675.375L812.894,721.679L794.372,732.483L786.655,727.853L788.198,675.375L811.35,675.375Z" style="fill:rgb(255,184,184);fill-rule:nonzero;"/>
                    </g>
                    <g transform="matrix(1,0,0,1,-40.4096,-54.8347)">
                        <path d="M820.009,725.845L823.096,775.236L779.878,793.758L782.965,767.519C782.965,767.519 795.313,747.453 792.226,725.845L820.009,725.845Z" style="fill:rgb(255,184,184);fill-rule:nonzero;"/>
                    </g>
                    <g transform="matrix(1,0,0,1,-40.4096,-54.8347)">
                        <path d="M886.378,353.868C886.378,353.868 911.074,418.693 915.704,458.824C920.335,498.954 928.052,605.454 928.052,605.454L943.487,742.823L900.269,748.997L881.748,610.084L840.074,472.715L830.813,610.084L823.096,735.106L782.965,736.649L779.878,606.997L762.9,441.846L772.161,363.128L886.378,353.868Z" style="fill:rgb(47,46,65);fill-rule:nonzero;"/>
                    </g>
                    <g transform="matrix(1,0,0,1,-40.4096,-54.8347)">
                        <path d="M909.53,787.584C909.53,787.584 912.062,761.661 930.861,776.166L934.226,773.692L949.661,807.649C949.661,807.649 968.182,833.888 935.769,836.975C903.356,840.062 906.443,807.649 906.443,807.649L903.356,793.758L904.9,784.661L909.53,787.584Z" style="fill:rgb(47,46,65);fill-rule:nonzero;"/>
                    </g>
                    <g transform="matrix(1,0,0,1,-40.4096,-54.8347)">
                        <path d="M820.009,756.714C827.736,761.132 832.473,769.423 832.357,778.323C832.357,793.758 830.813,795.301 830.813,795.301L807.661,801.475C807.661,801.475 792.226,799.932 782.965,809.192C773.705,818.453 727.4,824.627 727.4,812.279C727.4,799.932 765.987,779.866 765.987,779.866C765.987,779.866 777.446,760.514 785.608,762.473C793.77,764.432 796.857,767.519 796.857,769.062C796.857,770.606 792.226,781.41 792.226,781.41C792.226,781.41 818.465,775.236 820.009,756.714Z" style="fill:rgb(47,46,65);fill-rule:nonzero;"/>
                    </g>
                    <g transform="matrix(1,0,0,1,77.8356,7.98314)">
                        <circle cx="698.677" cy="62.616" r="38.587" style="fill:rgb(255,184,184);"/>
                    </g>
                    <g transform="matrix(1,0,0,1,-40.4096,-54.8347)">
                        <path d="M845.476,135.466L862.454,174.053L816.15,240.422C816.15,240.422 813.063,167.879 803.802,155.531C794.541,143.183 845.476,135.466 845.476,135.466Z" style="fill:rgb(255,184,184);fill-rule:nonzero;"/>
                    </g>
                    <g transform="matrix(1,0,0,1,77.8356,7.98314)">
                        <path d="M705.622,152.909L713.34,132.844L719.513,134.387L727.231,128.213L738.035,94.257L753.47,105.061L773.535,307.256L648.514,310.343L665.492,169.887L680.927,129.757L692.068,115.028L699.448,137.474L705.622,152.909Z" style="fill:rgb(207,204,224);fill-rule:nonzero;"/>
                    </g>
                    <g transform="matrix(1,0,0,1,-40.4096,-54.8347)">
                        <path d="M859.367,302.161L864.09,162.542C864.09,162.542 873.259,163.248 876.346,167.879C879.433,172.509 930.367,181.77 930.367,181.77L921.106,325.313C921.106,325.313 959.693,439.53 945.802,445.704C931.911,451.878 907.215,450.335 907.215,450.335L859.367,302.161Z" style="fill:rgb(87,90,137);fill-rule:nonzero;"/>
                    </g>
                    <g transform="matrix(1,0,0,1,-40.4096,-54.8347)">
                        <path d="M784.509,284.411L800.882,190.313L764.444,214.955L773.705,282.868L765.987,329.172C765.987,329.172 736.661,457.28 745.922,461.911C755.183,466.541 765.987,461.911 765.987,461.911L784.509,332.259L784.509,284.411Z" style="fill:rgb(87,90,137);fill-rule:nonzero;"/>
                    </g>
                    <g transform="matrix(1,0,0,1,-40.4096,-54.8347)">
                        <path d="M775.248,211.868L764.444,214.955L759.813,276.694L752.096,330.715L715.053,397.085C715.053,397.085 733.574,384.737 741.292,420.237L782.087,349.211L775.248,211.868Z" style="fill:rgb(87,90,137);fill-rule:nonzero;"/>
                    </g>
                    <g transform="matrix(1,0,0,1,-40.4096,-54.8347)">
                        <path d="M895.639,386.28C895.639,386.28 852.422,420.237 874.03,427.954C895.639,435.672 909.53,400.172 909.53,400.172L895.639,386.28Z" style="fill:rgb(255,184,184);fill-rule:nonzero;"/>
                    </g>
                    <g transform="matrix(1,0,0,1,77.8356,7.98314)">
                        <path d="M803.633,340.441L789.742,357.419L771.22,325.006L778.937,311.115L803.633,340.441Z" style="fill:rgb(207,204,224);fill-rule:nonzero;"/>
                    </g>
                    <g transform="matrix(1,0,0,1,-40.4096,-54.8347)">
                        <path d="M918.791,187.172L931.139,180.998C931.139,180.998 940.4,193.346 941.943,204.151C943.487,214.955 951.204,228.846 951.204,236.563C951.204,244.281 972.813,316.824 972.813,316.824L923.422,417.15C923.422,417.15 912.617,380.107 889.465,377.02L928.052,322.998L906.443,284.411L918.791,187.172Z" style="fill:rgb(87,90,137);fill-rule:nonzero;"/>
                    </g>
                    <g transform="matrix(1,0,0,1,-40.4096,-54.8347)">
                        <path d="M849.225,88.668L856.501,85.755C856.501,85.755 841.287,69.005 820.119,70.462L826.073,63.907C826.073,63.907 811.52,58.081 798.29,73.375C791.335,81.414 783.289,90.864 778.272,101.509L770.48,101.509L773.732,108.671L762.349,115.832L774.033,114.546C773.336,118.467 773.229,122.471 773.715,126.424C774.217,130.377 776.236,133.984 779.343,136.478C782.451,138.972 788.368,117.799 788.368,114.886L788.368,122.169C788.368,122.169 795.644,115.614 795.644,111.245L799.613,116.342L801.597,108.331L826.073,116.342L822.104,109.788L837.318,111.973L831.364,103.962C831.364,103.962 848.563,113.429 849.225,121.44C849.886,129.451 854.92,137.042 854.92,137.042C854.92,137.042 868.408,99.592 849.225,88.668Z" style="fill:rgb(47,46,65);fill-rule:nonzero;"/>
                    </g>
                    <g transform="matrix(1,0,0,1,77.8356,7.98314)">
                        <ellipse cx="730.318" cy="56.442" rx="4.322" ry="5.402" style="fill:rgb(255,184,184);"/>
                    </g>
                </g>
                <path d="M178.601,318.118L45.361,318.118L45.361,280.782L114.91,280.782L178.601,318.118Z" style="fill:rgb(108,99,255);fill-rule:nonzero;"/>
                <g transform="matrix(1,0,0,1,-118.245,-62.8178)">
                    <path d="M163.24,375.811L163.24,484.893L595.905,484.893L595.905,375.811L163.24,375.811ZM331.987,466.591L191.426,466.591L191.426,451.217L331.987,451.217L331.987,466.591ZM567.72,438.039L191.426,438.039L191.426,422.665L567.72,422.665L567.72,438.039ZM567.72,409.488L191.426,409.488L191.426,394.114L567.72,394.114L567.72,409.488Z" style="fill:rgb(63,61,86);fill-rule:nonzero;"/>
                </g>
                <path d="M178.601,141.685L45.361,141.685L45.361,104.348L114.91,104.348L178.601,141.685Z" style="fill:rgb(108,99,255);fill-rule:nonzero;"/>
                <g transform="matrix(1,0,0,1,-118.245,-62.8178)">
                    <path d="M163.24,201.574L163.24,310.655L595.905,310.655L595.905,201.574L163.24,201.574ZM331.987,292.353L191.426,292.353L191.426,276.979L331.987,276.979L331.987,292.353ZM413.249,263.802L191.426,263.802L191.426,248.428L413.249,248.428L413.249,263.802ZM567.72,235.25L191.426,235.25L191.426,219.876L567.72,219.876L567.72,235.25Z" style="fill:rgb(63,61,86);fill-rule:nonzero;"/>
                </g>
                <path d="M178.601,490.891L45.361,490.891L45.361,453.555L114.91,453.555L178.601,490.891Z" style="fill:rgb(108,99,255);fill-rule:nonzero;"/>
                <g transform="matrix(1,0,0,1,-118.245,-62.8178)">
                    <path d="M163.24,546.388L163.24,655.47L595.905,655.47L595.905,546.388L163.24,546.388ZM413.249,637.167L191.426,637.167L191.426,621.793L413.249,621.793L413.249,637.167ZM413.249,608.616L191.426,608.616L191.426,593.242L413.249,593.242L413.249,608.616ZM567.72,580.064L191.426,580.064L191.426,564.69L567.72,564.69L567.72,580.064Z" style="fill:rgb(63,61,86);fill-rule:nonzero;"/>
                </g>
                <g transform="matrix(1,0,0,1,-38.789,0)">
                    <path d="M600.285,223.679L538.789,223.679L538.789,162.183L580.519,162.183L580.519,163.647L540.254,163.647L540.254,222.215L598.821,222.215L598.821,192.931L600.285,192.931L600.285,223.679Z" style="fill:rgb(63,61,86);fill-rule:nonzero;"/>
                    <g transform="matrix(1,0,0,1,-118.245,-62.8178)">
                        <path d="M687.466,270.456C686.045,266.26 668.224,251.996 679.144,249.599L688.099,261.54L729.271,220.368L733.412,224.509L687.466,270.456Z" style="fill:rgb(207,204,224);fill-rule:nonzero;"/>
                    </g>
                    <path d="M600.285,397.916L538.789,397.916L538.789,336.42L580.519,336.42L580.519,337.885L540.254,337.885L540.254,396.452L598.821,396.452L598.821,367.168L600.285,367.168L600.285,397.916Z" style="fill:rgb(63,61,86);fill-rule:nonzero;"/>
                    <g transform="matrix(1,0,0,1,-118.245,-62.8178)">
                        <path d="M687.466,444.694C686.045,440.497 668.224,426.234 679.144,423.836L688.099,435.777L729.271,394.606L733.412,398.746L687.466,444.694Z" style="fill:rgb(207,204,224);fill-rule:nonzero;"/>
                    </g>
                    <path d="M600.285,571.421L538.789,571.421L538.789,509.926L580.519,509.926L580.519,511.39L540.254,511.39L540.254,569.957L598.821,569.957L598.821,540.673L600.285,540.673L600.285,571.421Z" style="fill:rgb(63,61,86);fill-rule:nonzero;"/>
                    <g transform="matrix(1,0,0,1,-118.245,-62.8178)">
                        <path d="M687.466,618.199C686.045,614.003 668.224,599.739 679.144,597.341L688.099,609.282L729.271,568.111L733.412,572.252L687.466,618.199Z" style="fill:rgb(207,204,224);fill-rule:nonzero;"/>
                    </g>
                </g>
            </g>
        </g>
    </g>
</svg>
