<?xml version="1.0" encoding="UTF-8" standalone="no"?>
<!DOCTYPE svg PUBLIC "-//W3C//DTD SVG 1.1//EN" "http://www.w3.org/Graphics/SVG/1.1/DTD/svg11.dtd">
<svg width="100%" height="100%" viewBox="0 0 412 709" version="1.1" xmlns="http://www.w3.org/2000/svg" xmlns:xlink="http://www.w3.org/1999/xlink" xml:space="preserve" xmlns:serif="http://www.serif.com/" style="fill-rule:evenodd;clip-rule:evenodd;stroke-linejoin:round;stroke-miterlimit:2;">
    <g id="Artboard1" transform="matrix(0.240495,0,0,0.627368,89.1476,94.0715)">
        <rect x="-370.685" y="-149.946" width="1709.16" height="1129.69" style="fill:none;"/>
        <g id="undraw_fall_thyk" transform="matrix(4.1581,0,0,1.59396,450.413,513.221)">
            <g transform="matrix(1,0,0,1,-541.71,-409.235)">
                <g transform="matrix(0.741349,-0.67112,0.67112,0.741349,74.5688,221.953)">
                    <g>
                        <g transform="matrix(1,0,0,1,-58.2902,-40.765)">
                            <path d="M83.23,477.021C84.35,476.779 85.493,476.657 86.64,476.657C95.48,476.657 102.754,483.931 102.754,492.771C102.754,500.329 97.437,506.922 90.049,508.521C81.351,510.404 58.29,498.909 58.29,498.909C58.29,498.909 74.532,478.905 83.23,477.021Z" style="fill:rgb(252,102,129);fill-rule:nonzero;"/>
                        </g>
                        <g transform="matrix(1,0,0,1,-58.2902,-40.765)">
                            <path d="M457.909,272.577C452.377,281.064 442.907,286.195 432.777,286.195C416.319,286.195 402.777,272.652 402.777,256.195C402.777,250.37 404.473,244.67 407.657,239.793C416.71,225.917 462.289,210.959 462.289,210.959C462.289,210.959 466.962,258.701 457.909,272.577Z" style="fill:rgb(252,243,129);fill-rule:nonzero;"/>
                        </g>
                        <g transform="matrix(1,0,0,1,-58.2902,-40.765)">
                            <path d="M446.909,179.577C441.377,188.064 431.907,193.195 421.777,193.195C405.319,193.195 391.777,179.652 391.777,163.195C391.777,157.37 393.473,151.67 396.657,146.793C405.71,132.917 451.289,117.959 451.289,117.959C451.289,117.959 455.962,165.701 446.909,179.577Z" style="fill:rgb(252,102,129);fill-rule:nonzero;"/>
                        </g>
                        <g transform="matrix(1,0,0,1,-58.2902,-40.765)">
                            <path d="M337.42,245.052C343.652,250.734 347.207,258.788 347.207,267.22C347.207,283.678 333.665,297.22 317.207,297.22C309.731,297.22 302.518,294.426 296.994,289.388C284.751,278.225 277.304,230.836 277.304,230.836C277.304,230.836 325.177,233.889 337.42,245.052Z" style="fill:rgb(252,102,129);fill-rule:nonzero;"/>
                        </g>
                        <g transform="matrix(1,0,0,1,-58.2902,-40.765)">
                            <path d="M267.42,371.052C273.652,376.734 277.207,384.788 277.207,393.22C277.207,409.678 263.665,423.22 247.207,423.22C239.731,423.22 232.518,420.426 226.994,415.388C214.751,404.225 207.304,356.836 207.304,356.836C207.304,356.836 255.177,359.889 267.42,371.052Z" style="fill:rgb(252,243,129);fill-rule:nonzero;"/>
                        </g>
                        <g transform="matrix(1,0,0,1,-58.2902,-40.765)">
                            <path d="M238.49,795.589C241.348,790.547 246.713,787.421 252.508,787.421C261.348,787.421 268.623,794.696 268.623,803.536C268.623,806.313 267.905,809.044 266.539,811.462C262.156,819.207 238.229,828.77 238.229,828.77C238.229,828.77 234.106,803.334 238.49,795.589Z" style="fill:rgb(252,102,129);fill-rule:nonzero;"/>
                        </g>
                    </g>
                    <g>
                        <g transform="matrix(1,0,0,1,-58.2902,-40.765)">
                            <path d="M272.142,710.564C272.142,710.564 272.085,703.922 274.646,700.319C289.211,679.83 270.442,648.386 279.685,618.591C286.536,596.624 296.809,575.874 310.124,557.107C380.762,457.12 387.137,391.969 380.047,354.92C372.273,314.297 347.016,297.426 346.761,297.261L347.852,295.584C348.112,295.753 374.035,313.016 381.996,354.464C386.585,378.358 384.426,405.604 375.579,435.445C364.567,472.582 343.094,513.904 311.757,558.261C298.564,576.857 288.384,597.417 281.595,619.183C287.293,633.493 258.424,630.238 272.142,710.564Z" style="fill:white;fill-rule:nonzero;"/>
                        </g>
                        <g transform="matrix(1,0,0,1,-58.2902,-40.765)">
                            <path d="M275.481,594.079C247.983,578.751 248.749,554.458 254.233,536.779C256.665,528.981 260.311,521.615 265.038,514.953C289.784,479.925 292.02,457.17 289.539,444.249C286.844,430.219 278.198,424.458 278.111,424.402L279.201,422.725C279.585,422.974 288.649,429.013 291.503,443.872C295.219,463.22 286.865,487.524 266.671,516.108C262.066,522.598 258.513,529.773 256.144,537.37C250.878,554.344 250.128,577.657 276.455,592.333L275.481,594.079Z" style="fill:white;fill-rule:nonzero;"/>
                        </g>
                        <g transform="matrix(1,0,0,1,-58.2902,-40.765)">
                            <path d="M399.198,372.08L398.225,370.333C424.551,355.657 423.801,332.344 418.536,315.371C416.167,307.774 412.614,300.598 408.008,294.108C387.815,265.524 379.46,241.22 383.177,221.872C386.031,207.013 395.095,200.974 395.479,200.725L396.57,202.401C396.483,202.458 387.793,208.294 385.125,222.328C382.671,235.242 384.932,257.977 409.642,292.953C414.368,299.615 418.014,306.981 420.446,314.778C425.931,332.458 426.696,356.751 399.198,372.08Z" style="fill:white;fill-rule:nonzero;"/>
                        </g>
                    </g>
                    <g>
                        <g transform="matrix(1,0,0,1,-58.2902,-40.765)">
                            <path d="M398.555,520.294C398.538,520.294 398.522,520.294 398.505,520.294C381.5,520.294 367.506,506.301 367.506,489.295C367.506,477.36 374.399,466.442 385.174,461.309C400.274,454.114 445.565,464.647 447.486,465.098L448.701,465.385L448.158,466.508C447.298,468.283 426.94,510.088 411.838,517.282C407.691,519.265 403.152,520.294 398.555,520.294ZM401.078,460.803C394.935,460.803 389.552,461.439 386.035,463.114C375.954,467.916 369.506,478.131 369.506,489.296C369.506,505.205 382.597,518.297 398.506,518.297C402.821,518.297 407.082,517.333 410.978,515.478C424.115,509.219 442.387,473.6 445.798,466.767C440.339,465.554 417.874,460.803 401.078,460.803Z" style="fill:white;fill-rule:nonzero;"/>
                        </g>
                        <g transform="matrix(1,0,0,1,-58.2902,-40.765)">
                            <path d="M345.883,388.723C335.87,388.723 316.723,379.241 315.844,378.803L314.727,378.247L315.514,377.278C316.186,376.45 332.08,356.979 341.018,355.044C342.208,354.786 343.422,354.656 344.64,354.656C354.028,354.656 361.754,362.382 361.754,371.771C361.754,379.799 356.106,386.8 348.261,388.498C347.478,388.657 346.681,388.732 345.883,388.723ZM317.876,377.565C322.592,379.816 340.653,388.1 347.838,386.543C354.762,385.039 359.744,378.859 359.744,371.773C359.744,363.481 352.922,356.659 344.63,356.659C343.558,356.659 342.489,356.773 341.441,356.999C334.254,358.555 321.238,373.566 317.876,377.565Z" style="fill:white;fill-rule:nonzero;"/>
                        </g>
                        <g transform="matrix(1,0,0,1,-58.2902,-40.765)">
                            <path d="M186.148,624.002C179.246,623.892 172.36,623.298 165.541,622.226L164.309,622.026L164.773,620.867C165.169,619.877 174.566,596.566 182.528,592.065C185.097,590.612 187.999,589.848 190.951,589.848C200.339,589.848 208.065,597.574 208.065,606.963C208.065,613.124 204.738,618.828 199.374,621.861C196.514,623.478 191.476,624.002 186.148,624.002ZM167.113,620.44C172.284,621.189 191.989,623.738 198.39,620.12C203.127,617.442 206.066,612.405 206.066,606.963C206.066,598.671 199.243,591.848 190.951,591.848C188.344,591.848 185.781,592.522 183.512,593.805C177.112,597.423 169.137,615.622 167.113,620.44Z" style="fill:white;fill-rule:nonzero;"/>
                        </g>
                    </g>
                </g>
            </g>
        </g>
    </g>
</svg>
