<?xml version="1.0" encoding="UTF-8" standalone="no"?>
<!DOCTYPE svg PUBLIC "-//W3C//DTD SVG 1.1//EN" "http://www.w3.org/Graphics/SVG/1.1/DTD/svg11.dtd">
<svg width="100%" height="100%" viewBox="0 0 110 121" version="1.1" xmlns="http://www.w3.org/2000/svg" xmlns:xlink="http://www.w3.org/1999/xlink" xml:space="preserve" xmlns:serif="http://www.serif.com/" style="fill-rule:evenodd;clip-rule:evenodd;stroke-miterlimit:10;">
    <g id="Artboard1" transform="matrix(0.0638237,0,0,0.106533,23.6585,15.9742)">
        <rect x="-370.685" y="-149.946" width="1709.16" height="1129.69" style="fill:none;"/>
        <clipPath id="_clip1">
            <rect x="-370.685" y="-149.946" width="1709.16" height="1129.69"/>
        </clipPath>
        <g clip-path="url(#_clip1)">
            <g id="undraw_social_ideas_e8rj" transform="matrix(12.1004,5.2229,-8.71793,7.24931,-8312.02,399.418)">
                <g transform="matrix(1,0,0,1,-530.685,-431.09)">
                    <g id="flower3" transform="matrix(1,0,0,1,-11.0674,-22.8357)">
                        <g transform="matrix(1,0,0,1,-69.31,-18.91)">
                            <path d="M987.94,336.08C987.94,336.08 1062.43,219 1071.43,169C1080.43,119 1097.43,73 1097.43,73" style="fill:none;fill-rule:nonzero;stroke:rgb(83,84,97);stroke-width:2px;"/>
                        </g>
                        <g transform="matrix(1,0,0,1,-69.31,-18.91)">
                            <path d="M1114.43,173L1067.43,177C1067.43,177 1092.43,220 1114.43,173Z" style="fill:rgb(255,240,255);fill-rule:nonzero;"/>
                        </g>
                        <g transform="matrix(1,0,0,1,-69.31,-18.91)">
                            <path d="M1032.43,147L1069.65,176.81C1069.65,176.81 1021.43,196 1032.43,147Z" style="fill:rgb(255,240,255);fill-rule:nonzero;"/>
                        </g>
                        <g transform="matrix(1,0,0,1,-69.31,-18.91)">
                            <path d="M1120.43,132L1078.11,137.67C1078.11,137.67 1115.43,168 1120.43,132Z" style="fill:rgb(255,240,255);fill-rule:nonzero;"/>
                        </g>
                        <g transform="matrix(1,0,0,1,-69.31,-18.91)">
                            <path d="M1050.43,117L1078.37,136.61C1078.37,136.61 1044.43,151 1050.43,117Z" style="fill:rgb(255,240,255);fill-rule:nonzero;"/>
                        </g>
                        <g transform="matrix(1,0,0,1,-69.31,-18.91)">
                            <path d="M1088.74,99.19C1088.74,99.19 1123.43,90 1128.43,92C1133.43,94 1130.43,116 1116.43,117C1102.43,118 1088.74,99.19 1088.74,99.19Z" style="fill:rgb(255,240,255);fill-rule:nonzero;"/>
                        </g>
                        <g transform="matrix(1,0,0,1,-69.31,-18.91)">
                            <path d="M1065.43,73C1065.43,73 1087.43,94 1088.43,99C1089.43,104 1070.43,116 1060.43,99C1050.43,82 1065.43,73 1065.43,73Z" style="fill:rgb(255,240,255);fill-rule:nonzero;"/>
                        </g>
                        <circle cx="1037.11" cy="56.09" r="10" style="fill:rgb(255,208,55);"/>
                        <circle cx="1019.11" cy="51.09" r="10" style="fill:rgb(255,208,55);"/>
                    </g>
                </g>
            </g>
        </g>
    </g>
</svg>
