<?xml version="1.0" encoding="UTF-8" standalone="no"?>
<!DOCTYPE svg PUBLIC "-//W3C//DTD SVG 1.1//EN" "http://www.w3.org/Graphics/SVG/1.1/DTD/svg11.dtd">
<svg width="100%" height="100%" viewBox="0 0 1028 895" version="1.1" xmlns="http://www.w3.org/2000/svg" xmlns:xlink="http://www.w3.org/1999/xlink" xml:space="preserve" xmlns:serif="http://www.serif.com/" style="fill-rule:evenodd;clip-rule:evenodd;stroke-miterlimit:10;">
    <g id="Artboard1" transform="matrix(0.601096,0,0,0.791899,222.817,118.742)">
        <rect x="-370.685" y="-149.946" width="1709.16" height="1129.69" style="fill:none;"/>
        <g id="undraw_social_ideas_e8rj" transform="matrix(1.58353,0,0,1.20199,479.432,390.235)">
            <g transform="matrix(1,0,0,1,-530.685,-431.09)">
                <clipPath id="_clip1">
                    <rect x="0" y="0" width="1061.37" height="862.18"/>
                </clipPath>
                <g clip-path="url(#_clip1)">
                    <g transform="matrix(1,0,0,1,-69.31,-18.91)">
                        <path d="M209.12,550.42C209.12,550.42 150.43,435.42 176.19,337.87C187,296.87 185.02,253.6 169.11,214.35C161.521,195.758 152.245,177.9 141.4,161" style="fill:none;fill-rule:nonzero;stroke:rgb(83,84,97);stroke-width:2px;"/>
                    </g>
                    <g transform="matrix(1,0,0,1,-69.31,-18.91)">
                        <path d="M157.27,99.37C160.07,114.29 141.18,162.61 141.18,162.61C141.18,162.61 106.06,124.42 103.26,109.51C103.023,108.051 102.903,106.575 102.903,105.096C102.903,90.021 115.308,77.616 130.383,77.616C143.306,77.616 154.567,86.731 157.26,99.37L157.27,99.37Z" style="fill:rgb(108,99,255);fill-rule:nonzero;"/>
                    </g>
                    <g transform="matrix(1,0,0,1,-69.31,-18.91)">
                        <path d="M217.42,173.62C211.66,187.62 169.54,217.96 169.54,217.96C169.54,217.96 160.81,166.82 166.54,152.77C170.714,142.378 180.841,135.532 192.04,135.532C207.115,135.532 219.52,147.937 219.52,163.012C219.52,166.654 218.796,170.26 217.39,173.62L217.42,173.62Z" style="fill:rgb(108,99,255);fill-rule:nonzero;"/>
                    </g>
                    <g transform="matrix(1,0,0,1,-69.31,-18.91)">
                        <path d="M242,315.17C229.94,324.39 178.29,329.27 178.29,329.27C178.29,329.27 196.57,280.71 208.63,271.5C213.421,267.839 219.286,265.855 225.315,265.855C240.39,265.855 252.795,278.26 252.795,293.335C252.795,301.891 248.799,309.975 242,315.17Z" style="fill:rgb(108,99,255);fill-rule:nonzero;"/>
                    </g>
                    <g transform="matrix(1,0,0,1,-69.31,-18.91)">
                        <path d="M236.42,426.46C226.09,437.58 176,451.12 176,451.12C176,451.12 185.81,400.17 196.14,389.05C201.33,383.545 208.57,380.42 216.135,380.42C231.21,380.42 243.615,392.825 243.615,407.9C243.615,414.765 241.043,421.386 236.41,426.45L236.42,426.46Z" style="fill:rgb(108,99,255);fill-rule:nonzero;"/>
                    </g>
                    <g transform="matrix(1,0,0,1,-69.31,-18.91)">
                        <path d="M113.37,231.48C126.02,239.87 177.88,241.28 177.88,241.28C177.88,241.28 156.38,194.06 143.73,185.67C139.229,182.686 133.946,181.094 128.545,181.094C113.469,181.094 101.064,193.499 101.064,208.575C101.064,217.78 105.688,226.394 113.36,231.48L113.37,231.48Z" style="fill:rgb(108,99,255);fill-rule:nonzero;"/>
                    </g>
                    <g transform="matrix(1,0,0,1,-69.31,-18.91)">
                        <path d="M108.54,361.72C123.12,365.94 173.03,351.72 173.03,351.72C173.03,351.72 138.39,313.1 123.81,308.88C121.448,308.234 119.01,307.907 116.561,307.907C101.486,307.907 89.081,320.311 89.081,335.387C89.081,347.44 97.011,358.152 108.54,361.67L108.54,361.72Z" style="fill:rgb(108,99,255);fill-rule:nonzero;"/>
                    </g>
                    <g transform="matrix(1,0,0,1,-69.31,-18.91)">
                        <path d="M121.21,488.94C134.87,495.56 186.45,490.03 186.45,490.03C186.45,490.03 158.83,446.11 145.18,439.49C141.44,437.675 137.337,436.732 133.18,436.732C118.103,436.732 105.697,449.138 105.697,464.215C105.697,474.725 111.725,484.351 121.18,488.94L121.21,488.94Z" style="fill:rgb(108,99,255);fill-rule:nonzero;"/>
                    </g>
                    <g transform="matrix(1,0,0,1,-69.31,-18.91)">
                        <path d="M157.27,99.37C160.07,114.29 141.18,162.61 141.18,162.61C141.18,162.61 106.06,124.42 103.26,109.51C103.023,108.051 102.903,106.575 102.903,105.096C102.903,90.021 115.308,77.616 130.383,77.616C143.306,77.616 154.567,86.731 157.26,99.37L157.27,99.37Z" style="fill:rgb(252,102,129);fill-rule:nonzero;"/>
                    </g>
                    <g transform="matrix(1,0,0,1,-69.31,-18.91)">
                        <path d="M217.42,173.62C211.66,187.62 169.54,217.96 169.54,217.96C169.54,217.96 160.81,166.82 166.54,152.77C170.714,142.378 180.841,135.532 192.04,135.532C207.115,135.532 219.52,147.937 219.52,163.012C219.52,166.654 218.796,170.26 217.39,173.62L217.42,173.62Z" style="fill:rgb(252,102,129);fill-rule:nonzero;"/>
                    </g>
                    <g transform="matrix(1,0,0,1,-69.31,-18.91)">
                        <path d="M242,315.17C229.94,324.39 178.29,329.27 178.29,329.27C178.29,329.27 196.57,280.71 208.63,271.5C213.421,267.839 219.286,265.855 225.315,265.855C240.39,265.855 252.795,278.26 252.795,293.335C252.795,301.891 248.799,309.975 242,315.17Z" style="fill:rgb(252,102,129);fill-rule:nonzero;"/>
                    </g>
                    <g transform="matrix(1,0,0,1,-69.31,-18.91)">
                        <path d="M236.42,426.46C226.09,437.58 176,451.12 176,451.12C176,451.12 185.81,400.17 196.14,389.05C201.33,383.545 208.57,380.42 216.135,380.42C231.21,380.42 243.615,392.825 243.615,407.9C243.615,414.765 241.043,421.386 236.41,426.45L236.42,426.46Z" style="fill:rgb(252,102,129);fill-rule:nonzero;"/>
                    </g>
                    <g transform="matrix(1,0,0,1,-69.31,-18.91)">
                        <path d="M113.37,231.48C126.02,239.87 177.88,241.28 177.88,241.28C177.88,241.28 156.38,194.06 143.73,185.67C139.229,182.686 133.946,181.094 128.545,181.094C113.469,181.094 101.064,193.499 101.064,208.575C101.064,217.78 105.688,226.394 113.36,231.48L113.37,231.48Z" style="fill:rgb(252,102,129);fill-rule:nonzero;"/>
                    </g>
                    <g transform="matrix(1,0,0,1,-69.31,-18.91)">
                        <path d="M108.54,361.72C123.12,365.94 173.03,351.72 173.03,351.72C173.03,351.72 138.39,313.1 123.81,308.88C121.448,308.234 119.01,307.907 116.561,307.907C101.486,307.907 89.081,320.311 89.081,335.387C89.081,347.44 97.011,358.152 108.54,361.67L108.54,361.72Z" style="fill:rgb(252,102,129);fill-rule:nonzero;"/>
                    </g>
                    <g transform="matrix(1,0,0,1,-69.31,-18.91)">
                        <path d="M121.21,488.94C134.87,495.56 186.45,490.03 186.45,490.03C186.45,490.03 158.83,446.11 145.18,439.49C141.44,437.675 137.337,436.732 133.18,436.732C118.103,436.732 105.697,449.138 105.697,464.215C105.697,474.725 111.725,484.351 121.18,488.94L121.21,488.94Z" style="fill:rgb(252,102,129);fill-rule:nonzero;"/>
                    </g>
                    <g transform="matrix(1,0,0,1,-69.31,-18.91)">
                        <path d="M987.94,336.08C987.94,336.08 1062.43,219 1071.43,169C1080.43,119 1097.43,73 1097.43,73" style="fill:none;fill-rule:nonzero;stroke:rgb(83,84,97);stroke-width:2px;"/>
                    </g>
                    <g transform="matrix(1,0,0,1,-69.31,-18.91)">
                        <path d="M1114.43,173L1067.43,177C1067.43,177 1092.43,220 1114.43,173Z" style="fill:rgb(108,99,255);fill-rule:nonzero;"/>
                    </g>
                    <g transform="matrix(1,0,0,1,-69.31,-18.91)">
                        <path d="M1032.43,147L1069.65,176.81C1069.65,176.81 1021.43,196 1032.43,147Z" style="fill:rgb(108,99,255);fill-rule:nonzero;"/>
                    </g>
                    <g transform="matrix(1,0,0,1,-69.31,-18.91)">
                        <path d="M1120.43,132L1078.11,137.67C1078.11,137.67 1115.43,168 1120.43,132Z" style="fill:rgb(108,99,255);fill-rule:nonzero;"/>
                    </g>
                    <g transform="matrix(1,0,0,1,-69.31,-18.91)">
                        <path d="M1050.43,117L1078.37,136.61C1078.37,136.61 1044.43,151 1050.43,117Z" style="fill:rgb(108,99,255);fill-rule:nonzero;"/>
                    </g>
                    <g transform="matrix(1,0,0,1,-69.31,-18.91)">
                        <path d="M1088.74,99.19C1088.74,99.19 1123.43,90 1128.43,92C1133.43,94 1130.43,116 1116.43,117C1102.43,118 1088.74,99.19 1088.74,99.19Z" style="fill:rgb(108,99,255);fill-rule:nonzero;"/>
                    </g>
                    <g transform="matrix(1,0,0,1,-69.31,-18.91)">
                        <path d="M1065.43,73C1065.43,73 1087.43,94 1088.43,99C1089.43,104 1070.43,116 1060.43,99C1050.43,82 1065.43,73 1065.43,73Z" style="fill:rgb(108,99,255);fill-rule:nonzero;"/>
                    </g>
                    <circle cx="1037.11" cy="56.09" r="10" style="fill:rgb(255,208,55);"/>
                    <circle cx="1019.11" cy="51.09" r="10" style="fill:rgb(255,208,55);"/>
                    <g transform="matrix(1,0,0,1,-69.31,-18.91)">
                        <path d="M300.61,138C295.47,144.24 293.49,153 291.27,161.27C273.43,227.76 229.49,281.27 179.44,319.45C158.25,335.63 132.44,357.34 137.08,386.34C139.57,401.92 150.53,413.34 158.69,426.08C175.77,452.65 181.3,488.78 173.16,520.58C163.9,556.77 138.04,590.58 146.05,627.14C150.99,649.7 167.75,665.7 183.87,679.48C209.01,700.967 234.953,721.09 261.7,739.85C279.63,752.43 298.7,764.67 319.59,766.26C337.99,767.67 356.01,760.68 373.47,753.77C388.73,747.77 404.38,741.46 416.7,729.37C424.7,721.48 431.16,711.29 440.09,704.84C461.09,689.67 488.03,699.29 512.09,705.75C569.336,720.948 630.156,715.38 683.69,690.04C766.58,651.04 829.76,569.29 910.81,525.4C945.67,506.52 983.59,494.81 1015.87,470.5C1034.06,456.65 1049.69,439.729 1062.05,420.5C1086.49,382.85 1099.66,334.85 1095.87,287.87C1092.08,240.89 1070.7,195.6 1037.17,169.08C1001.27,140.69 955.93,135.39 915.07,118.34C872.88,100.73 835.36,70.46 793.58,51.58C725.139,20.734 646.278,22.515 579.3,56.42C533.83,79.37 487.75,133.03 437.1,137.06C401,140 328.79,103.85 300.61,138Z" style="fill:rgb(108,99,255);fill-rule:nonzero;"/>
                    </g>
                    <circle cx="692.23" cy="115.4" r="8" style="fill:white;"/>
                    <circle cx="666.23" cy="226.4" r="4" style="fill:white;"/>
                    <circle cx="516.23" cy="115.4" r="4" style="fill:white;"/>
                    <circle cx="183.69" cy="278.09" r="4" style="fill:white;"/>
                    <circle cx="415.23" cy="567.4" r="4" style="fill:white;"/>
                    <circle cx="144.23" cy="383.4" r="4" style="fill:white;"/>
                    <circle cx="839.23" cy="145.4" r="4" style="fill:white;"/>
                    <circle cx="612.23" cy="307.4" r="4" style="fill:white;"/>
                    <circle cx="954.23" cy="255.4" r="4" style="fill:white;"/>
                    <circle cx="692.69" cy="553.09" r="4" style="fill:white;"/>
                    <path d="M839.23,264.21L830.92,264.21L830.92,255.9L829.53,255.9L829.53,264.21L821.23,264.21L821.23,265.6L829.53,265.6L829.53,273.9L830.92,273.9L830.92,265.6L839.23,265.6L839.23,264.21Z" style="fill:white;fill-rule:nonzero;"/>
                    <path d="M423.23,760.6L419.54,760.6L419.54,756.9L418.92,756.9L418.92,760.6L415.23,760.6L415.23,761.21L418.92,761.21L418.92,764.9L419.54,764.9L419.54,761.21L423.23,761.21L423.23,760.6Z" style="fill:white;fill-rule:nonzero;"/>
                    <path d="M588.23,647.6L584.53,647.6L584.53,643.9L583.92,643.9L583.92,647.6L580.23,647.6L580.23,648.21L583.92,648.21L583.92,651.9L584.53,651.9L584.53,648.21L588.23,648.21L588.23,647.6Z" style="fill:white;fill-rule:nonzero;"/>
                    <path d="M834.23,417.6L830.53,417.6L830.53,413.9L829.92,413.9L829.92,417.6L826.23,417.6L826.23,418.21L829.92,418.21L829.92,421.9L830.53,421.9L830.53,418.21L834.23,418.21L834.23,417.6Z" style="fill:white;fill-rule:nonzero;"/>
                    <path d="M666.23,475.6L662.53,475.6L662.53,471.9L661.92,471.9L661.92,475.6L658.23,475.6L658.23,476.21L661.92,476.21L661.92,479.9L662.53,479.9L662.53,476.21L666.23,476.21L666.23,475.6Z" style="fill:white;fill-rule:nonzero;"/>
                    <path d="M191.23,413.6L187.53,413.6L187.53,409.9L186.92,409.9L186.92,413.6L183.23,413.6L183.23,414.21L186.92,414.21L186.92,417.9L187.53,417.9L187.53,414.21L191.23,414.21L191.23,413.6Z" style="fill:white;fill-rule:nonzero;"/>
                    <path d="M592.23,178.6L588.53,178.6L588.53,174.9L587.92,174.9L587.92,178.6L584.23,178.6L584.23,179.21L587.92,179.21L587.92,182.9L588.53,182.9L588.53,179.21L592.23,179.21L592.23,178.6Z" style="fill:white;fill-rule:nonzero;"/>
                    <path d="M269.23,143.6L265.54,143.6L265.54,139.9L264.92,139.9L264.92,143.6L261.23,143.6L261.23,144.21L264.92,144.21L264.92,147.9L265.54,147.9L265.54,144.21L269.23,144.21L269.23,143.6Z" style="fill:white;fill-rule:nonzero;"/>
                    <g transform="matrix(1,0,0,1,-138.64,-164.681)">
                        <path d="M928.21,362.86L911.76,356L933.76,303.05L950.21,309.88L928.21,362.86ZM945,299.27C941.121,297.677 938.576,293.88 938.576,289.687C938.576,284.003 943.252,279.327 948.936,279.327C954.619,279.327 959.296,284.003 959.296,289.687C959.296,291.036 959.032,292.372 958.52,293.62C956.345,298.863 950.259,301.406 945,299.27ZM989.78,388.44L973.37,381.62L984.08,355.85C986.63,349.71 989.78,341.78 981.36,338.28C972.94,334.78 968.73,340.86 965.86,347.76L954.94,374L938.51,367.17L960.51,314.22L976.28,320.77L973.28,327.99L973.51,328.09C977.43,324.84 984.62,322.68 992.62,326.01C1009.26,332.92 1007.77,345.15 1001.86,359.39L989.77,388.47L989.78,388.44Z" style="fill-opacity:0.2;fill-rule:nonzero;"/>
                    </g>
                    <g transform="matrix(1,0,0,1,-69.31,-18.91)">
                        <path d="M641.6,85.86C632.64,85.882 625.28,93.26 625.28,102.22C625.28,111.195 632.665,118.58 641.64,118.58C650.615,118.58 658,111.195 658,102.22L658,102.19C658,93.231 650.628,85.86 641.67,85.86C641.647,85.86 641.623,85.86 641.6,85.86ZM641.6,112.86C635.769,112.86 630.97,108.061 630.97,102.23C630.97,96.399 635.769,91.6 641.6,91.6C647.431,91.6 652.23,96.399 652.23,102.23C652.219,108.057 647.427,112.849 641.6,112.86ZM662.44,85.2C662.44,87.296 660.716,89.02 658.62,89.02C656.524,89.02 654.8,87.296 654.8,85.2C654.8,83.104 656.524,81.38 658.62,81.38C658.623,81.38 658.627,81.38 658.63,81.38C660.72,81.38 662.44,83.1 662.44,85.19L662.44,85.2ZM673.27,89.07C673.03,83.96 671.86,79.43 668.12,75.7C664.38,71.97 659.86,70.8 654.75,70.55C649.48,70.25 633.69,70.25 628.43,70.55C623.33,70.79 618.81,71.96 615.06,75.69C611.31,79.42 610.16,83.95 609.91,89.06C609.61,94.33 609.61,110.12 609.91,115.38C610.15,120.49 611.32,125.02 615.06,128.75C618.8,132.48 623.32,133.65 628.43,133.9C633.7,134.2 649.49,134.2 654.75,133.9C659.86,133.66 664.39,132.49 668.12,128.75C671.85,125.01 673.02,120.49 673.27,115.38C673.57,110.11 673.57,94.38 673.27,89.07ZM666.47,121.07C665.376,123.84 663.18,126.036 660.41,127.13C656.21,128.8 646.24,128.41 641.6,128.41C636.96,128.41 626.98,128.78 622.79,127.13C620.02,126.036 617.824,123.84 616.73,121.07C615.06,116.87 615.45,106.9 615.45,102.26C615.45,97.62 615.08,87.64 616.73,83.45C617.824,80.68 620.02,78.484 622.79,77.39C626.99,75.72 636.96,76.11 641.6,76.11C646.24,76.11 656.22,75.74 660.41,77.39C663.18,78.484 665.376,80.68 666.47,83.45C668.14,87.65 667.75,97.62 667.75,102.26C667.75,106.9 668.13,116.84 666.47,121L666.47,121.07Z" style="fill-opacity:0.2;fill-rule:nonzero;"/>
                    </g>
                    <g transform="matrix(0.979152,-0.203129,0.203129,0.979152,-713.81,254.853)">
                        <path d="M858.54,454L858.54,512.71C858.54,514.707 856.897,516.35 854.9,516.35L838.08,516.35L838.08,490.75L846.65,490.75L847.93,480.75L838.06,480.75L838.06,474.39C838.06,471.5 838.86,469.54 843,469.54L848.27,469.54L848.27,460.63C845.716,460.357 843.149,460.224 840.58,460.23C832.98,460.23 827.76,464.87 827.76,473.4L827.76,480.75L819.16,480.75L819.16,490.75L827.76,490.75L827.76,516.31L796.18,516.31C794.185,516.305 792.545,514.665 792.54,512.67L792.54,454C792.545,452.005 794.185,450.365 796.18,450.36L854.89,450.36C856.889,450.36 858.535,452.001 858.54,454Z" style="fill-opacity:0.2;fill-rule:nonzero;"/>
                    </g>
                    <g id="github-brands" transform="matrix(0.158346,-0.0305924,0.0305924,0.158346,667.099,266.675)">
                        <g transform="matrix(1,0,0,1,-248,-256)">
                            <path d="M165.9,397.4C165.9,399.4 163.6,401 160.7,401C157.4,401.3 155.1,399.7 155.1,397.4C155.1,395.4 157.4,393.8 160.3,393.8C163.3,393.5 165.9,395.1 165.9,397.4ZM134.8,392.9C134.1,394.9 136.1,397.2 139.1,397.8C141.7,398.8 144.7,397.8 145.3,395.8C145.9,393.8 144,391.5 141,390.6C138.4,389.9 135.5,390.9 134.8,392.9ZM179,391.2C176.1,391.9 174.1,393.8 174.4,396.1C174.7,398.1 177.3,399.4 180.3,398.7C183.2,398 185.2,396.1 184.9,394.1C184.6,392.2 181.9,390.9 179,391.2ZM244.8,8C106.1,8 0,113.3 0,252C0,362.9 69.8,457.8 169.5,491.2C182.3,493.5 186.8,485.6 186.8,479.1C186.8,472.9 186.5,438.7 186.5,417.7C186.5,417.7 116.5,432.7 101.8,387.9C101.8,387.9 90.4,358.8 74,351.3C74,351.3 51.1,335.6 75.6,335.9C75.6,335.9 100.5,337.9 114.2,361.7C136.1,400.3 172.8,389.2 187.1,382.6C189.4,366.6 195.9,355.5 203.1,348.9C147.2,342.7 90.8,334.6 90.8,238.4C90.8,210.9 98.4,197.1 114.4,179.5C111.8,173 103.3,146.2 117,111.6C137.9,105.1 186,138.6 186,138.6C206,133 227.5,130.1 248.8,130.1C270.1,130.1 291.6,133 311.6,138.6C311.6,138.6 359.7,105 380.6,111.6C394.3,146.3 385.8,173 383.2,179.5C399.2,197.2 409,211 409,238.4C409,334.9 350.1,342.6 294.2,348.9C303.4,356.8 311.2,371.8 311.2,395.3C311.2,429 310.9,470.7 310.9,478.9C310.9,485.4 315.5,493.3 328.2,491C428.2,457.8 496,362.9 496,252C496,113.3 383.5,8 244.8,8ZM97.2,352.9C95.9,353.9 96.2,356.2 97.9,358.1C99.5,359.7 101.8,360.4 103.1,359.1C104.4,358.1 104.1,355.8 102.4,353.9C100.8,352.3 98.5,351.6 97.2,352.9ZM86.4,344.8C85.7,346.1 86.7,347.7 88.7,348.7C90.3,349.7 92.3,349.4 93,348C93.7,346.7 92.7,345.1 90.7,344.1C88.7,343.5 87.1,343.8 86.4,344.8ZM118.8,380.4C117.2,381.7 117.8,384.7 120.1,386.6C122.4,388.9 125.3,389.2 126.6,387.6C127.9,386.3 127.3,383.3 125.3,381.4C123.1,379.1 120.1,378.8 118.8,380.4ZM107.4,365.7C105.8,366.7 105.8,369.3 107.4,371.6C109,373.9 111.7,374.9 113,373.9C114.6,372.6 114.6,370 113,367.7C111.6,365.4 109,364.4 107.4,365.7Z" style="fill:rgb(86,79,204);fill-rule:nonzero;"/>
                        </g>
                    </g>
                </g>
            </g>
        </g>
        <g id="man" transform="matrix(2.15735,0,0,1.63755,-354.547,-63.8094)">
            <ellipse cx="278.5" cy="555.962" rx="278.5" ry="13" style="fill:rgb(63,61,86);"/>
            <ellipse cx="268" cy="594.962" rx="99" ry="13" style="fill:rgb(63,61,86);"/>
            <g transform="matrix(1,0,0,1,-39.5,-146.019)">
                <path d="M225,429.481L225,437.481C225,437.481 215.977,479.31 230,477.481C253,474.481 236,440.481 236,440.481L236,433.481L225,429.481Z" style="fill:rgb(255,184,184);fill-rule:nonzero;"/>
            </g>
            <path d="M297.5,508.462L306.5,533.462L328.5,525.462L318.5,502.462L297.5,508.462Z" style="fill:rgb(255,184,184);fill-rule:nonzero;"/>
            <path d="M242.5,533.462L236.5,555.462L259.5,562.462L260.5,539.462L242.5,533.462Z" style="fill:rgb(255,184,184);fill-rule:nonzero;"/>
            <g transform="matrix(1,0,0,1,-39.5,-146.019)">
                <path d="M262,427.481L260,438.481C260,438.481 259,446.481 260,451.481C261,456.481 333,663.481 333,663.481L364,651.481L324,520.481L319,419.481L262,427.481Z" style="fill:rgb(47,46,65);fill-rule:nonzero;"/>
            </g>
            <g transform="matrix(1,0,0,1,-39.5,-146.019)">
                <path d="M301,425.481L297,573.481C297,573.481 288,583.481 290,590.481C292,597.481 285,655.481 285,655.481L279,684.481L305,692.481C305,692.481 310,666.481 314,663.481C318,660.481 341,570.481 341,564.481C341,558.481 358,425.481 358,425.481L316,408.481L301,425.481Z" style="fill:rgb(47,46,65);fill-rule:nonzero;"/>
            </g>
            <g transform="matrix(1,0,0,1,-39.5,-146.019)">
                <path d="M348,663.481C348,663.481 337,651.481 331,663.481C326.505,672.107 321.496,680.455 316,688.481C310.504,696.507 284,707.481 316,712.481C316,712.481 334,713.481 343,707.481C352,701.481 376,692.481 376,690.481C376,688.481 370,659.081 364,662.281C358,665.481 348,663.481 348,663.481Z" style="fill:rgb(47,46,65);fill-rule:nonzero;"/>
            </g>
            <g transform="matrix(1,0,0,1,-39.5,-146.019)">
                <path d="M293,696.481C293,696.481 284,683.481 276,692.481C268,701.481 258,727.481 258,727.481C258,727.481 240,754.481 268,753.481C296,752.481 298,742.481 298,742.481C298,742.481 302,716.481 302,715.481C302,714.481 300,704.201 300,704.201L293,696.481Z" style="fill:rgb(47,46,65);fill-rule:nonzero;"/>
            </g>
            <circle cx="247" cy="45.962" r="28" style="fill:rgb(255,184,184);"/>
            <g transform="matrix(1,0,0,1,-39.5,-146.019)">
                <path d="M272,209.481L276,241.481L288,271.481L314,240.481L314,225.481C314,225.481 306,213.481 308,203.481L272,209.481Z" style="fill:rgb(255,184,184);fill-rule:nonzero;"/>
            </g>
            <g transform="matrix(1,0,0,1,-39.5,-146.019)">
                <path d="M286,248.481L272,242.481L257,419.481L260,430.481C260,430.481 268,435.481 293,431.481C318,427.481 359,430.481 359,430.481L362,339.481L313,232.481L286,248.481Z" style="fill:rgb(208,205,225);fill-rule:nonzero;"/>
            </g>
            <g transform="matrix(1,0,0,1,-39.5,-146.019)">
                <path d="M261,423.481C261,423.481 280,258.481 279,255.481C278,252.481 261,244.358 261,244.358C261,244.358 232,263.481 233,270.481C234,277.481 252,425.481 252,425.481L261,423.481Z" style="fill:rgb(87,90,137);fill-rule:nonzero;"/>
            </g>
            <g transform="matrix(1,0,0,1,-39.5,-146.019)">
                <path d="M337,411.481C337,411.481 307,294.481 306,268.481C305,242.481 305,239.481 305,239.481C305,239.481 351,223.481 367,239.481L370,323.481C370,323.481 375,359.481 373,370.481C371.622,377.644 369.615,384.671 367,391.481C364.385,398.291 378,402.481 368,405.481C358,408.481 351,403.481 347,408.481C343,413.481 337,411.481 337,411.481Z" style="fill:rgb(87,90,137);fill-rule:nonzero;"/>
            </g>
            <g transform="matrix(1,0,0,1,-39.5,-146.019)">
                <path d="M240,264.481C240,264.481 228,264.481 229,278.481C230,292.481 229,357.481 229,357.481C229,357.481 220,412.481 223,416.481C226,420.481 222,433.481 222,433.481L240,437.481C240,437.481 242,423.481 246,422.481C250,421.481 256,392.481 256,392.481L240,264.481Z" style="fill:rgb(87,90,137);fill-rule:nonzero;"/>
            </g>
            <g transform="matrix(1,0,0,1,-39.5,-146.019)">
                <path d="M375,387.481L370.408,395.83C370.408,395.83 338.912,420.912 354.456,430.197C370,439.481 385,405.481 385,405.481L390,396.481L375,387.481Z" style="fill:rgb(255,184,184);fill-rule:nonzero;"/>
            </g>
            <g transform="matrix(1,0,0,1,-39.5,-146.019)">
                <path d="M353,237.481L367,239.481C367,239.481 383,250.481 384,256.481C385,262.481 417,317.481 417,317.481C418.887,321.561 419.908,325.987 420,330.481C420,337.481 409,390.481 403,391.481C397,392.481 393,402.481 393,402.481L372,389.481C372.066,386.457 372.401,383.445 373,380.481C374,375.481 378,365.481 378,365.481L384,344.481C382.113,343.066 381,340.84 381,338.481C381,334.481 364,313.481 364,313.481L353,237.481Z" style="fill:rgb(87,90,137);fill-rule:nonzero;"/>
            </g>
            <g transform="matrix(1,0,0,1,-39.5,-146.019)">
                <path d="M282.884,258.69C282.884,258.69 257,251.481 259,246.481C261,241.481 263,240.481 263,240.481C263,240.481 266,232.481 269,232.481C272,232.481 274.568,230.025 274.568,230.025L286,248.481L282.884,258.69Z" style="fill:rgb(208,205,225);fill-rule:nonzero;"/>
            </g>
            <g transform="matrix(1,0,0,1,-39.5,-146.019)">
                <path d="M311.015,219.981C311.015,219.981 321,217.481 325,220.481C329,223.481 332,223.481 333,225.481C334,227.481 347,229.481 343,232.481C339,235.481 286,248.481 286,248.481L311,230.481L311.015,219.981Z" style="fill:rgb(208,205,225);fill-rule:nonzero;"/>
            </g>
            <g transform="matrix(1,0,0,1,-39.5,-146.019)">
                <path d="M314.136,162.188C309.67,154.935 302.673,149.586 294.503,147.179L288.5,151.981L290.834,146.38C288.871,146.08 286.885,145.966 284.901,146.037L279.5,152.981L281.735,146.275C272.265,147.452 263.707,152.542 258.153,160.302C251.279,170.214 251.739,183.992 258.5,193.981C260.356,188.278 260.989,182.932 262.844,177.228C264.303,177.427 265.781,177.434 267.242,177.25L269.5,171.981L270.131,177.027C277.129,176.417 287.51,175.078 294.145,173.852L293.5,169.981L297.36,173.198C299.393,172.73 300.6,172.305 300.5,171.981C305.435,179.936 310.324,185.017 315.258,192.972C317.132,181.751 320.438,172.424 314.136,162.188Z" style="fill:rgb(47,46,65);fill-rule:nonzero;"/>
            </g>
            <ellipse cx="273" cy="41.962" rx="2" ry="4" style="fill:rgb(255,184,184);"/>
            <g transform="matrix(1,0,0,1,-39.5,-146.019)">
                <path d="M143.72,701.712L142.647,701.31C142.411,701.221 118.938,692.228 107.943,671.836C96.946,651.444 102.331,626.891 102.386,626.646L102.64,625.528L103.713,625.93C103.948,626.019 127.421,635.012 138.417,655.404C149.413,675.796 144.028,700.349 143.973,700.594L143.72,701.712ZM109.703,670.887C119,688.128 137.549,696.966 142.248,698.984C143.142,693.947 145.944,673.578 136.656,656.353C127.369,639.13 108.813,630.279 104.111,628.256C103.217,633.296 100.416,653.663 109.703,670.887Z" style="fill:rgb(63,61,86);fill-rule:nonzero;"/>
            </g>
            <g transform="matrix(1,0,0,1,-39.5,-146.019)">
                <path d="M116.346,664.683C136.106,676.572 143.717,700.186 143.717,700.186C143.717,700.186 119.289,704.525 99.528,692.636C79.768,680.748 72.157,657.133 72.157,657.133C72.157,657.133 96.585,652.795 116.346,664.683Z" style="fill:rgb(108,99,255);fill-rule:nonzero;"/>
            </g>
            <rect x="152" y="536.962" width="19" height="15" style="fill:rgb(108,99,255);"/>
            <rect x="309" y="580.962" width="19" height="15" style="fill:rgb(108,99,255);"/>
        </g>
        <g id="_-" serif:id="#" transform="matrix(1.66363,0,0,1.26279,126.034,10.668)">
            <ellipse cx="211" cy="709.225" rx="141" ry="17" style="fill:rgb(242,242,242);"/>
            <ellipse cx="508" cy="709.225" rx="141" ry="17" style="fill:rgb(242,242,242);"/>
            <g transform="matrix(1,0,0,1,-139.015,-86.6271)">
                <path d="M830.685,494.618L843.015,420.293L689.067,387.678L695.387,198.089L620.046,198.089L614.255,371.828L407.017,327.922L411.345,198.089L336.004,198.089L332.205,312.072L180.789,279.993L168.458,354.318L329.658,388.47L324.747,535.824L151.345,499.087L139.015,573.411L322.2,612.221L316.087,795.616L391.427,795.616L397.012,628.071L604.25,671.976L600.129,795.616L675.469,795.616L679.062,687.826L801.242,713.711L813.572,639.386L681.609,611.429L686.521,464.075L830.685,494.618ZM606.797,595.579L399.559,551.673L404.47,404.319L611.708,448.225L606.797,595.579Z" style="fill:rgb(63,61,86);fill-rule:nonzero;"/>
            </g>
            <path d="M488.565,508.952L493.477,361.598L286.239,317.692L286.093,322.065L472.693,361.598L467.927,504.579L488.565,508.952Z" style="fill-opacity:0.2;fill-rule:nonzero;"/>
            <path d="M496.024,285.201L501.815,111.461L481.031,111.461L475.386,280.828L496.024,285.201Z" style="fill-opacity:0.2;fill-rule:nonzero;"/>
            <path d="M568.289,377.448L568.143,381.82L691.67,407.991L692.376,403.737L568.289,377.448Z" style="fill-opacity:0.2;fill-rule:nonzero;"/>
            <path d="M213.974,225.445L217.773,111.461L196.989,111.461L193.336,221.073L213.974,225.445Z" style="fill-opacity:0.2;fill-rule:nonzero;"/>
            <path d="M560.831,601.199L560.685,605.571L662.226,627.084L662.932,622.83L560.831,601.199Z" style="fill-opacity:0.2;fill-rule:nonzero;"/>
            <path d="M278.781,541.443L278.635,545.816L465.235,585.349L461.114,708.989L481.897,708.989L486.019,585.349L278.781,541.443Z" style="fill-opacity:0.2;fill-rule:nonzero;"/>
            <path d="M185.877,444.824L206.515,449.196L211.427,301.843L50.227,267.691L61.851,197.62L41.774,193.366L29.443,267.691L190.643,301.843L185.877,444.824Z" style="fill-opacity:0.2;fill-rule:nonzero;"/>
            <path d="M20.784,486.784L32.408,416.713L12.33,412.459L0,486.784L183.185,525.594L177.072,708.989L197.855,708.989L203.969,525.594L20.784,486.784Z" style="fill-opacity:0.2;fill-rule:nonzero;"/>
            <path d="M386.429,40.573L348.271,25.517L364.33,12.759L380.389,0L383.409,20.287L386.429,40.573Z" style="fill:rgb(242,242,242);fill-rule:nonzero;"/>
            <g transform="matrix(1,0,0,1,50.5171,42.6905)">
                <path d="M371.248,183.963L352.17,176.435L333.091,168.906L363.389,148L367.319,165.981L371.248,183.963Z" style="fill:rgb(242,242,242);fill-rule:nonzero;"/>
            </g>
            <path d="M338.429,376.573L300.271,361.517L316.33,348.759L332.389,336L335.409,356.287L338.429,376.573Z" style="fill:rgb(242,242,242);fill-rule:nonzero;"/>
            <path d="M138.374,594.33L120.355,604.127L102.336,613.925L102.86,593.421L103.385,572.918L120.879,583.624L138.374,594.33Z" style="fill:rgb(242,242,242);fill-rule:nonzero;"/>
            <path d="M120.374,134.33L102.355,144.127L84.336,153.925L84.86,133.421L85.385,112.918L102.879,123.624L120.374,134.33Z" style="fill:rgb(242,242,242);fill-rule:nonzero;"/>
            <g transform="matrix(1,0,0,1,-139.015,-86.6271)">
                <path d="M350.862,764.436C363.172,785.429 387.999,793.74 387.999,793.74C387.999,793.74 392.868,768.016 380.558,747.023C368.248,726.031 343.421,717.72 343.421,717.72C343.421,717.72 338.553,743.444 350.862,764.436Z" style="fill:rgb(242,242,242);fill-rule:nonzero;"/>
            </g>
            <g transform="matrix(1,0,0,1,-139.015,-86.6271)">
                <path d="M358.544,757.11C379.832,768.9 388.75,793.515 388.75,793.515C388.75,793.515 363.153,799.014 341.865,787.224C320.577,775.433 311.658,750.818 311.658,750.818C311.658,750.818 337.255,745.319 358.544,757.11Z" style="fill:rgb(108,99,255);fill-rule:nonzero;"/>
            </g>
            <g transform="matrix(1,0,0,1,-74.3229,31.1676)">
                <g transform="matrix(1,0,0,1,-139.015,-86.6271)">
                    <path d="M743.035,747.048C728.737,766.741 731.075,792.817 731.075,792.817C731.075,792.817 756.593,786.966 770.891,767.274C785.189,747.581 782.851,721.505 782.851,721.505C782.851,721.505 757.332,727.356 743.035,747.048Z" style="fill:rgb(108,99,255);fill-rule:nonzero;"/>
                </g>
                <g transform="matrix(1,0,0,1,-139.015,-86.6271)">
                    <path d="M752.826,751.148C750.558,775.378 731.582,793.415 731.582,793.415C731.582,793.415 716.283,772.169 718.552,747.94C720.82,723.71 739.796,705.673 739.796,705.673C739.796,705.673 755.095,726.919 752.826,751.148Z" style="fill:rgb(108,99,255);fill-rule:nonzero;"/>
                </g>
            </g>
        </g>
    </g>
</svg>
