<?xml version="1.0" encoding="UTF-8" standalone="no"?>
<!DOCTYPE svg PUBLIC "-//W3C//DTD SVG 1.1//EN" "http://www.w3.org/Graphics/SVG/1.1/DTD/svg11.dtd">
<svg width="100%" height="100%" viewBox="0 0 2766 705" version="1.1" xmlns="http://www.w3.org/2000/svg" xmlns:xlink="http://www.w3.org/1999/xlink" xml:space="preserve" xmlns:serif="http://www.serif.com/" style="fill-rule:evenodd;clip-rule:evenodd;stroke-linejoin:round;stroke-miterlimit:2;">
    <g id="Artboard1" transform="matrix(0.991516,0,0,1.0604,380.471,62.6022)">
        <rect x="-383.727" y="-59.037" width="2789.28" height="664.82" style="fill:none;"/>
        <g transform="matrix(1.00856,0,0,0.943044,-3019.22,-301.688)">
            <g>
                <g transform="matrix(1,0,0,1,-401.121,-59.4253)">
                    <g>
                        <path d="M2989.28,317.306L4444.81,317.306L4448,738.642C4448,738.642 4134.52,1010.74 3633.94,893.654C3633.89,893.644 3633.85,893.633 3633.8,893.622C3627.61,892.377 3228.46,812.419 2983.61,850.818L2989.28,317.306Z" style="fill:url(#_Linear1);"/>
                    </g>
                </g>
                <g transform="matrix(1,0,0,1.09319,2599.61,270.231)">
                    <g>
                        <path d="M5.473,529.106C5.473,529.106 278.829,502.364 593.784,564.761C908.738,627.157 980.36,619.268 1364.56,508.063C1460.72,480.229 1527.99,467.308 1649.77,504.683C1765.72,540.269 1959.23,633.834 2292.01,621.949C2624.8,610.064 2785.07,467.443 2826.84,381.277C2868.62,295.11 2815.14,-76.298 2815.14,-76.298L99.401,-138.694L-81.847,-61.442L-78.875,437.731L5.473,529.106Z" style="fill:url(#_Linear2);"/>
                    </g>
                </g>
            </g>
        </g>
    </g>
    <defs>
        <linearGradient id="_Linear1" x1="0" y1="0" x2="1" y2="0" gradientUnits="userSpaceOnUse" gradientTransform="matrix(1464.39,0,0,1464.39,2983.61,620.11)"><stop offset="0" style="stop-color:rgb(42,42,97);stop-opacity:1"/><stop offset="0.5" style="stop-color:rgb(80,72,162);stop-opacity:1"/><stop offset="1" style="stop-color:rgb(112,100,222);stop-opacity:1"/></linearGradient>
        <linearGradient id="_Linear2" x1="0" y1="0" x2="1" y2="0" gradientUnits="userSpaceOnUse" gradientTransform="matrix(2924.64,0,0,2924.64,-81.8465,241.919)"><stop offset="0" style="stop-color:rgb(42,42,97);stop-opacity:1"/><stop offset="0.5" style="stop-color:rgb(80,72,162);stop-opacity:1"/><stop offset="1" style="stop-color:rgb(112,100,222);stop-opacity:1"/></linearGradient>
    </defs>
</svg>
