<?xml version="1.0" encoding="UTF-8" standalone="no"?>
<!DOCTYPE svg PUBLIC "-//W3C//DTD SVG 1.1//EN" "http://www.w3.org/Graphics/SVG/1.1/DTD/svg11.dtd">
<svg width="100%" height="100%" viewBox="0 0 779 867" version="1.1" xmlns="http://www.w3.org/2000/svg" xmlns:xlink="http://www.w3.org/1999/xlink" xml:space="preserve" xmlns:serif="http://www.serif.com/" style="fill-rule:evenodd;clip-rule:evenodd;stroke-linejoin:round;stroke-miterlimit:2;">
    <g transform="matrix(1,0,0,1,-37.0031,-343.493)">
        <g transform="matrix(1,0,0,1,499.799,386.989)">
            <g transform="matrix(1,0,0,1,-266.793,-75.5074)">
                <clipPath id="_clip1">
                    <rect x="-196.003" y="32.011" width="778.119" height="730.006"/>
                </clipPath>
                <g clip-path="url(#_clip1)">
                    <g transform="matrix(1,0,0,1,0.200799,0.0108586)">
                        <path d="M290.59,192C270.41,192 183.77,193.98 128,277.95L128,192C128,139.06 84.94,96 32,96C14.33,96 0,110.33 0,128C0,145.67 14.33,160 32,160C49.64,160 64,174.36 64,192L64,448C64,483.3 92.7,512 128,512L304,512C312.84,512 320,504.84 320,496L320,480C320,462.33 305.67,448 288,448L256,448L384,352L384,496C384,504.84 391.16,512 400,512L432,512C440.84,512 448,504.84 448,496L448,289.86C437.71,292.53 427.11,294.4 416,294.4C354.19,294.4 302.48,250.35 290.59,192ZM448,96L384,96L320,32L320,166.4C320,219.42 362.98,262.4 416,262.4C469.02,262.4 512,219.42 512,166.4L512,32L448,96ZM376,176C367.16,176 360,168.84 360,160C360,151.16 367.16,144 376,144C384.84,144 392,151.16 392,160C392,168.84 384.84,176 376,176ZM456,176C447.16,176 440,168.84 440,160C440,151.16 447.16,144 456,144C464.84,144 472,151.16 472,160C472,168.84 464.84,176 456,176Z" style="fill-rule:nonzero;"/>
                    </g>
                    <g id="broom-solid" transform="matrix(0.937567,0.347805,-0.347805,0.937567,193.056,547.3)">
                        <g transform="matrix(1,0,0,1,-320,-256)">
                            <clipPath id="_clip2">
                                <rect x="0" y="0" width="640" height="512"/>
                            </clipPath>
                            <g clip-path="url(#_clip2)">
                                <path d="M256.47,216.77L343.2,325.95C343.2,325.95 326.6,428.31 266.63,476.07C206.66,523.85 0,510.19 0,510.19C0,510.19 3.8,487.05 11,454.76L105.62,342.59C109.59,337.89 104.75,330.97 98.97,333.09L38.57,355.18C53.01,313.52 71.29,275.14 93.17,257.71C153.14,209.95 256.47,216.77 256.47,216.77ZM636.53,31.03L616.67,6.03C611.18,-0.87 601.15,-2.02 594.26,3.47L361.78,181.27L327.64,138.3C322.55,131.89 312.5,133.09 309.05,140.51L283.72,195.06L370.45,304.24L429.25,291.79C437.25,290.1 440.67,280.59 435.59,274.19L401.5,231.27L633.98,53.47C640.87,47.99 642.02,37.94 636.53,31.03Z" style="fill-rule:nonzero;"/>
                            </g>
                        </g>
                    </g>
                </g>
            </g>
        </g>
    </g>
</svg>
