<?xml version="1.0" encoding="UTF-8" standalone="no"?>
<!DOCTYPE svg PUBLIC "-//W3C//DTD SVG 1.1//EN" "http://www.w3.org/Graphics/SVG/1.1/DTD/svg11.dtd">
<svg width="100%" height="100%" viewBox="0 0 324 324" version="1.1" xmlns="http://www.w3.org/2000/svg" xmlns:xlink="http://www.w3.org/1999/xlink" xml:space="preserve" xmlns:serif="http://www.serif.com/" style="fill-rule:evenodd;clip-rule:evenodd;stroke-linejoin:round;stroke-miterlimit:2;">
    <g transform="matrix(1,0,0,1,-1378.31,-344.547)">
        <g transform="matrix(1,0,0,1,499.799,386.989)">
            <g id="dove-solid" transform="matrix(-0.631312,0,0,0.631312,1040.13,119.174)">
                <g transform="matrix(1,0,0,1,-256,-256)">
                    <clipPath id="_clip1">
                        <rect x="0" y="0" width="512" height="512"/>
                    </clipPath>
                    <g clip-path="url(#_clip1)">
                        <path d="M288,167.2L288,139.1C259.8,102.8 240.9,59.8 233.9,13.9C231.8,0.4 214.9,-4.9 206.1,5.6C185,30.5 168.4,59.7 157.2,92.1C191.4,130.4 237.2,156.7 288,167.2ZM400,64C355.8,64 320,99.9 320,144.1L320,203.5C215.6,197.3 127,133 87,41.8C81.5,29.3 63.8,28.6 58,40.9C41.4,76 32,115.2 32,156.6C32,227.4 66.1,293.5 117.1,342.5C130.3,355.2 143.2,365.7 156,375.3L12.1,411.3C1.4,414 -3.4,426.4 2.6,435.7C20,462.6 63,508.2 155.8,512C163.8,512.3 171.8,509.4 177.9,504.1L243.1,448L320,448C408.4,448 480,376.5 480,288.1L480,128L512,64L400,64ZM400,160.1C391.2,160.1 384,152.9 384,144.1C384,135.3 391.2,128.1 400,128.1C408.8,128.1 416,135.3 416,144.1C416,152.9 408.8,160.1 400,160.1Z" style="fill-rule:nonzero;"/>
                    </g>
                </g>
            </g>
        </g>
    </g>
</svg>
